<svg width="42" height="42" viewBox="0 0 42 42" fill="none" xmlns="http://www.w3.org/2000/svg">
<path d="M33.0455 23.4706H28.722C25.993 23.4706 23.7808 25.6828 23.7808 28.4118V28.9859C23.7808 30.344 24.3387 31.6283 25.3009 32.5514L23.0357 34.493C21.9405 35.4317 21.3102 36.8022 21.3102 38.2446V38.2941H5.86903C4.50456 38.2941 3.39844 37.188 3.39844 35.8235V2.47059C3.39844 1.10612 4.50456 0 5.86903 0H30.5749C31.9394 0 33.0455 1.10612 33.0455 2.47059V23.4706ZM10.8102 8.64706H25.6337C26.316 8.64706 26.869 8.094 26.869 7.41176C26.869 6.72953 26.316 6.17647 25.6337 6.17647H10.8102C10.128 6.17647 9.57491 6.72953 9.57491 7.41176C9.57491 8.094 10.128 8.64706 10.8102 8.64706ZM10.8102 14.8235H25.6337C26.316 14.8235 26.869 14.2705 26.869 13.5882C26.869 12.906 26.316 12.3529 25.6337 12.3529H10.8102C10.128 12.3529 9.57491 12.906 9.57491 13.5882C9.57491 14.2705 10.128 14.8235 10.8102 14.8235ZM10.8102 21H19.4573C20.1395 21 20.6926 20.4469 20.6926 19.7647C20.6926 19.0825 20.1395 18.5294 19.4573 18.5294H10.8102C10.128 18.5294 9.57491 19.0825 9.57491 19.7647C9.57491 20.4469 10.128 21 10.8102 21ZM13.8984 33.3529C16.6274 33.3529 18.8396 31.1407 18.8396 28.4118C18.8396 25.6828 16.6274 23.4706 13.8984 23.4706C11.1695 23.4706 8.95726 25.6828 8.95726 28.4118C8.95726 31.1407 11.1695 33.3529 13.8984 33.3529ZM13.8984 30.8824C12.534 30.8824 11.4278 29.7762 11.4278 28.4118C11.4278 27.0473 12.534 25.9412 13.8984 25.9412C15.2629 25.9412 16.369 27.0473 16.369 28.4118C16.369 29.7762 15.2629 30.8824 13.8984 30.8824ZM28.1043 31.9958C28.1043 31.7132 27.9631 31.4493 27.7279 31.2925L27.3515 31.0416C26.6642 30.5834 26.2514 29.812 26.2514 28.9859V28.4118C26.2514 27.0473 27.3575 25.9412 28.722 25.9412H33.6631C35.0276 25.9412 36.1337 27.0473 36.1337 28.4118V28.9859C36.1337 29.812 35.7209 30.5834 35.0336 31.0416L34.6572 31.2925C34.422 31.4493 34.2808 31.7132 34.2808 31.9958V33.4024L37.7416 36.3688C38.2892 36.8382 38.6043 37.5234 38.6043 38.2446V39.5294C38.6043 40.8939 37.4982 42 36.1337 42H26.2514C24.8869 42 23.7808 40.8939 23.7808 39.5294V38.2446C23.7808 37.5234 24.096 36.8382 24.6436 36.3688L28.1043 33.4024V31.9958Z" fill="#2063CC"/>
</svg>
