<svg width="42" height="42" viewBox="0 0 42 42" fill="none" xmlns="http://www.w3.org/2000/svg">
<path d="M38.5011 17.675C38.6761 16.8 37.9761 15.75 37.1011 15.75L27.1261 14.35L22.5761 5.25001C22.4011 4.90001 22.2261 4.72501 21.8761 4.55001C21.0011 4.02501 19.9511 4.37501 19.4261 5.25001L15.0511 14.35L5.0761 15.75C4.5511 15.75 4.2011 15.925 4.0261 16.275C3.3261 16.975 3.3261 18.025 4.0261 18.725L11.2011 25.725L9.4511 35.7C9.4511 36.05 9.4511 36.4 9.6261 36.75C10.1511 37.625 11.2011 37.975 12.0761 37.45L21.0011 32.725L29.9261 37.45C30.1011 37.625 30.4511 37.625 30.8011 37.625H31.1511C32.0261 37.45 32.7261 36.575 32.5511 35.525L30.8011 25.55L37.9761 18.55C38.3261 18.375 38.5011 18.025 38.5011 17.675Z" fill="#2063CC"/>
</svg>
