<svg width="42" height="42" viewBox="0 0 42 42" fill="none" xmlns="http://www.w3.org/2000/svg">
<path d="M32.5607 0.983154H12.0463V32.2207H23.9192L22.5739 27.7962C22.2812 26.8315 22.4558 25.817 23.0543 25.0098C23.6475 24.2105 24.5912 23.7327 25.5782 23.7327C25.8893 23.7327 26.199 23.7787 26.4996 23.8705L36.6675 26.9628V5.08997C36.6688 2.82459 34.8261 0.983154 32.5607 0.983154ZM27.4249 16.9327H21.7496C21.0973 16.9327 20.5684 16.4037 20.5684 15.7514C20.5684 15.0991 21.0973 14.5702 21.7496 14.5702H27.4249C28.0772 14.5702 28.6061 15.0991 28.6061 15.7514C28.6061 16.4037 28.0772 16.9327 27.4249 16.9327ZM30.445 12.016H18.7296C18.0773 12.016 17.5483 11.4871 17.5483 10.8348C17.5483 10.1825 18.0773 9.65353 18.7296 9.65353H30.445C31.0973 9.65353 31.6262 10.1825 31.6262 10.8348C31.6262 11.4871 31.0973 12.016 30.445 12.016Z" fill="#2063CC"/>
<path d="M26.0163 39.1126L25.5963 37.7332H7.85914C4.30226 37.7332 4.29439 32.2207 7.85914 32.2207H10.0773V32.2102V29.8477V0.983154H7.85914C5.03726 0.983154 2.74039 3.28003 2.74039 6.1019V34.906C2.74039 34.927 2.73383 34.948 2.73383 34.969C2.73383 37.7948 5.03333 40.0943 7.85914 40.0943H26.5203C26.3024 39.8043 26.1278 39.4775 26.0163 39.1126Z" fill="#2063CC"/>
<path d="M24.458 27.2226L27.9007 38.539C28.2341 39.6349 29.7776 39.6586 30.1437 38.5718L31.7555 33.7891C31.8736 33.4399 32.1466 33.1669 32.4957 33.0488L37.2785 31.4371C38.3639 31.0709 38.3416 29.5274 37.2457 29.194L25.9293 25.7513C25.0263 25.4796 24.185 26.3209 24.458 27.2226Z" fill="#2063CC"/>
</svg>
