<svg width="16" height="16" viewBox="0 0 16 16" fill="none" xmlns="http://www.w3.org/2000/svg">
<g clip-path="url(#clip0_9809_59)">
<g clip-path="url(#clip1_9809_59)">
<path d="M13 2.1665C13.221 2.1665 13.433 2.2543 13.5893 2.41058C13.7455 2.56686 13.8333 2.77882 13.8333 2.99984V9.6665C13.8333 9.88752 13.7455 10.0995 13.5893 10.2558C13.433 10.412 13.221 10.4998 13 10.4998C12.779 10.4998 12.567 10.412 12.4107 10.2558C12.2545 10.0995 12.1667 9.88752 12.1667 9.6665V5.0115L3.875 13.3032C3.71783 13.455 3.50733 13.539 3.28883 13.5371C3.07033 13.5352 2.86132 13.4475 2.70682 13.293C2.55231 13.1385 2.46467 12.9295 2.46277 12.711C2.46087 12.4925 2.54487 12.282 2.69666 12.1248L10.9883 3.83317H6.33333C6.11232 3.83317 5.90036 3.74537 5.74408 3.58909C5.5878 3.43281 5.5 3.22085 5.5 2.99984C5.5 2.77882 5.5878 2.56686 5.74408 2.41058C5.90036 2.2543 6.11232 2.1665 6.33333 2.1665H13Z" fill="white"/>
</g>
</g>
<defs>
<clipPath id="clip0_9809_59">
<rect width="16" height="16" fill="white"/>
</clipPath>
<clipPath id="clip1_9809_59">
<rect width="20" height="20" fill="white" transform="translate(-2 -2)"/>
</clipPath>
</defs>
</svg>
