<svg width="20" height="20" viewBox="0 0 20 20" fill="none" xmlns="http://www.w3.org/2000/svg">
<g clip-path="url(#clip0_9809_52)">
<path d="M1.0699 10.5393C0.878888 10.3483 0.77158 10.0892 0.77158 9.81906C0.77158 9.54893 0.878888 9.28987 1.0699 9.09886L6.83151 3.33725C7.02252 3.14624 7.28158 3.03893 7.55171 3.03893C7.82184 3.03893 8.0809 3.14624 8.27191 3.33725C8.46292 3.52825 8.57023 3.78732 8.57023 4.05745C8.57023 4.32757 8.46292 4.58664 8.27191 4.77765L4.24887 8.80069L18.5809 8.80069C18.8479 8.80533 19.1024 8.91466 19.2896 9.10514C19.4768 9.29561 19.5817 9.55199 19.5817 9.81906C19.5817 10.0861 19.4768 10.3425 19.2896 10.533C19.1024 10.7234 18.8479 10.8328 18.5809 10.8374L4.24887 10.8374L8.27191 14.8605C8.46292 15.0515 8.57023 15.3105 8.57023 15.5807C8.57023 15.8508 8.46292 16.1099 8.27191 16.3009C8.0809 16.4919 7.82184 16.5992 7.55171 16.5992C7.28158 16.5992 7.02252 16.4919 6.83151 16.3009L1.0699 10.5393Z" fill="#202020"/>
</g>
<defs>
<clipPath id="clip0_9809_52">
<rect width="24.4444" height="24.4444" fill="white" transform="translate(-2.22229 -2.22217)"/>
</clipPath>
</defs>
</svg>
