<svg width="20" height="20" viewBox="0 0 20 20" fill="none" xmlns="http://www.w3.org/2000/svg">
<g clip-path="url(#clip0_9809_196)">
<g clip-path="url(#clip1_9809_196)">
<path d="M19.2854 9.09893C19.4765 9.28994 19.5838 9.549 19.5838 9.81913C19.5838 10.0893 19.4765 10.3483 19.2854 10.5393L13.5238 16.3009C13.3328 16.4919 13.0738 16.5993 12.8036 16.5993C12.5335 16.5993 12.2744 16.4919 12.0834 16.3009C11.8924 16.1099 11.7851 15.8509 11.7851 15.5807C11.7851 15.3106 11.8924 15.0515 12.0834 14.8605L16.1065 10.8375L1.77447 10.8375C1.50745 10.8329 1.25293 10.7235 1.06574 10.533C0.878547 10.3426 0.773655 10.0862 0.773655 9.81913C0.773655 9.55206 0.878548 9.29569 1.06574 9.10521C1.25294 8.91474 1.50745 8.8054 1.77447 8.80076L16.1065 8.80076L12.0834 4.77772C11.8924 4.58671 11.7851 4.32764 11.7851 4.05752C11.7851 3.78739 11.8924 3.52832 12.0834 3.33732C12.2744 3.14631 12.5335 3.039 12.8036 3.039C13.0738 3.039 13.3328 3.14631 13.5238 3.33732L19.2854 9.09893Z" fill="#202020"/>
</g>
</g>
<defs>
<clipPath id="clip0_9809_196">
<rect width="19.5556" height="19.5556" fill="white" transform="translate(0.222168 0.222168)"/>
</clipPath>
<clipPath id="clip1_9809_196">
<rect width="24.4444" height="24.4444" fill="white" transform="translate(-2.22229 -2.22217)"/>
</clipPath>
</defs>
</svg>
