<svg width="16" height="16" viewBox="0 0 16 16" fill="none" xmlns="http://www.w3.org/2000/svg">
<g clip-path="url(#clip0_7910_1076)">
<path d="M5.99716 13.3333C6.17397 13.3333 6.34354 13.4035 6.46856 13.5286C6.59359 13.6536 6.66382 13.8232 6.66382 14C6.66382 14.1768 6.59359 14.3463 6.46856 14.4714C6.34354 14.5964 6.17397 14.6666 5.99716 14.6666C5.82035 14.6666 5.65078 14.5964 5.52575 14.4714C5.40073 14.3463 5.33049 14.1768 5.33049 14C5.33049 13.8232 5.40073 13.6536 5.52575 13.5286C5.65078 13.4035 5.82035 13.3333 5.99716 13.3333ZM10.6638 13.3333C10.8406 13.3333 11.0102 13.4035 11.1352 13.5286C11.2603 13.6536 11.3305 13.8232 11.3305 14C11.3305 14.1768 11.2603 14.3463 11.1352 14.4714C11.0102 14.5964 10.8406 14.6666 10.6638 14.6666C10.487 14.6666 10.3174 14.5964 10.1924 14.4714C10.0674 14.3463 9.99716 14.1768 9.99716 14C9.99716 13.8232 10.0674 13.6536 10.1924 13.5286C10.3174 13.4035 10.487 13.3333 10.6638 13.3333ZM2.32716 1.75396L2.39716 1.80063L3.53582 2.65396C3.7296 2.79936 3.8801 2.9948 3.97116 3.2193L4.01116 3.3333H12.5752C12.7559 3.33325 12.9348 3.36995 13.1009 3.44117C13.267 3.51238 13.4169 3.61663 13.5415 3.74757C13.6661 3.87851 13.7627 4.03342 13.8256 4.20287C13.8884 4.37232 13.9162 4.55278 13.9072 4.7333L13.8985 4.83196L13.5938 7.26863C13.5024 8.00191 13.1699 8.68403 12.6486 9.20776C12.1272 9.73149 11.4467 10.0671 10.7138 10.162L10.5632 10.1773L5.68783 10.584L5.86116 11.3333H11.6638C11.8337 11.3335 11.9972 11.3985 12.1207 11.5152C12.2443 11.6318 12.3186 11.7913 12.3286 11.9609C12.3386 12.1305 12.2834 12.2975 12.1743 12.4279C12.0653 12.5582 11.9106 12.6419 11.7418 12.662L11.6638 12.6666H5.86116C5.57823 12.6667 5.30262 12.5767 5.07419 12.4098C4.84576 12.2428 4.67636 12.0075 4.59049 11.738L4.56182 11.6333L2.73516 3.71996L1.59716 2.86663C1.46709 2.76914 1.37712 2.62749 1.34417 2.46832C1.31121 2.30915 1.33755 2.14342 1.41822 2.0023C1.4989 1.86119 1.62835 1.75441 1.78223 1.70204C1.93611 1.64968 2.10382 1.65534 2.25382 1.71796L2.32716 1.75396ZM12.5752 4.66663H4.32182L5.38516 9.27063L10.4518 8.84863C10.9091 8.81058 11.3394 8.61645 11.6705 8.29879C12.0017 7.98113 12.2135 7.55927 12.2705 7.10396L12.5752 4.66663Z" fill="#FD6229"/>
</g>
<defs>
<clipPath id="clip0_7910_1076">
<rect width="16" height="16" fill="white"/>
</clipPath>
</defs>
</svg>
