<svg width="118" height="125" viewBox="0 0 118 125" fill="none" xmlns="http://www.w3.org/2000/svg">
<g clip-path="url(#clip0_7910_2172)">
<path d="M68.5 11.417C82.1255 11.417 95.1929 16.8297 104.828 26.4644C114.462 36.0991 119.875 49.1665 119.875 62.792C119.875 80.3394 110.308 94.7016 100.227 105.005C95.1894 110.096 89.6938 114.713 83.8098 118.796L81.378 120.452L80.2363 121.211L78.0843 122.581L76.1663 123.751L73.7916 125.133C72.1791 126.051 70.3555 126.533 68.5 126.533C66.6445 126.533 64.8209 126.051 63.2084 125.133L60.8337 123.751L57.8654 121.925L56.7694 121.211L54.429 119.653C48.0812 115.356 42.1678 110.45 36.7731 105.005C26.6922 94.6959 17.125 80.3394 17.125 62.792C17.125 49.1665 22.5377 36.0991 32.1724 26.4644C41.8071 16.8297 54.8745 11.417 68.5 11.417ZM68.5 45.667C66.2511 45.667 64.0243 46.1099 61.9465 46.9706C59.8688 47.8312 57.981 49.0926 56.3908 50.6828C54.8006 52.273 53.5392 54.1608 52.6786 56.2385C51.818 58.3162 51.375 60.5431 51.375 62.792C51.375 65.0409 51.818 67.2677 52.6786 69.3454C53.5392 71.4231 54.8006 73.311 56.3908 74.9012C57.981 76.4914 59.8688 77.7528 61.9465 78.6134C64.0243 79.474 66.2511 79.917 68.5 79.917C73.0418 79.917 77.3976 78.1128 80.6092 74.9012C83.8208 71.6896 85.625 67.3338 85.625 62.792C85.625 58.2502 83.8208 53.8943 80.6092 50.6828C77.3976 47.4712 73.0418 45.667 68.5 45.667Z" fill="#EFF5FF"/>
</g>
<defs>
<clipPath id="clip0_7910_2172">
<rect width="118" height="125" fill="white"/>
</clipPath>
</defs>
</svg>
