<svg width="138" height="123" viewBox="0 0 138 123" fill="none" xmlns="http://www.w3.org/2000/svg">
<path d="M20.9557 16.167C20.952 16.167 20.9479 16.167 20.9442 16.167C19.6484 16.167 18.4297 16.6721 17.5095 17.59C16.5791 18.5181 16.0666 19.7539 16.0666 21.0695V94.5815C16.0666 97.2773 18.2683 99.4757 20.9751 99.4827C32.3863 99.5099 51.5045 101.888 64.6935 115.69V38.7578C64.6935 37.844 64.46 36.9855 64.0195 36.2752C53.1946 18.8424 32.3927 16.1937 20.9557 16.167Z" fill="#EFF5FF"/>
<path d="M120.931 94.582V21.0695C120.931 19.7539 120.419 18.5181 119.488 17.59C118.568 16.6721 117.348 16.167 116.054 16.167C116.05 16.167 116.046 16.167 116.042 16.167C104.605 16.1942 83.8035 18.8429 72.9782 36.2756C72.5376 36.986 72.3047 37.8444 72.3047 38.7582V115.69C85.4936 101.888 104.612 99.5099 116.023 99.4827C118.729 99.4757 120.931 97.2773 120.931 94.582Z" fill="#EFF5FF"/>
<path d="M132.106 33.1191H128.552V94.5807C128.552 101.463 122.944 107.076 116.051 107.093C106.372 107.116 90.4121 109.009 79.1094 119.706C98.6575 114.92 119.265 118.031 131.009 120.708C132.475 121.042 133.991 120.697 135.166 119.76C136.336 118.826 137.008 117.43 137.008 115.931V38.0207C137.008 35.3181 134.809 33.1191 132.106 33.1191Z" fill="#EFF5FF"/>
<path d="M8.4562 94.5807V33.1191H4.90157C2.19939 33.1191 0 35.3181 0 38.0207V115.93C0 117.429 0.671625 118.825 1.84236 119.759C3.01632 120.695 4.53024 121.041 5.99896 120.706C17.7432 118.029 38.3509 114.919 57.8981 119.705C46.5958 109.008 30.6364 107.116 20.9574 107.092C14.0645 107.076 8.4562 101.463 8.4562 94.5807Z" fill="#EFF5FF"/>
</svg>
