<svg width="125" height="129" viewBox="0 0 125 129" fill="none" xmlns="http://www.w3.org/2000/svg">
<g clip-path="url(#clip0_7914_4596)">
<path d="M9.4154 1.03465C7.49515 3.37782 6.9996 6.48178 7.89778 10.2552C8.51722 12.8114 10.7782 17.3152 12.9771 20.3887C13.3798 20.9669 12.4816 20.1453 10.995 18.5629C9.47734 16.9805 7.46418 14.9111 6.53503 13.9982L4.83159 12.3549L4.24312 13.6635C3.46883 15.4285 3.4998 18.5629 4.30507 20.8452C4.9245 22.5189 7.21641 25.8663 7.7739 25.8663C7.92876 25.8663 8.05264 26.0184 8.05264 26.201C8.05264 26.4445 7.92876 26.4445 7.68098 26.2619C6.93766 25.7141 3.77855 24.9229 2.72551 25.0142L1.70344 25.1055L1.79636 26.7488C1.95122 28.7876 2.72551 30.3092 4.83159 32.5611L6.47309 34.2956L4.86256 34.0218C3.96438 33.9 2.50871 33.8696 1.6415 33.9609C0.340689 34.1131 0 34.2652 0 34.7217C0 35.026 0.123887 35.3303 0.278745 35.452C0.433604 35.5433 0.681377 36.0302 0.774293 36.5475C1.05304 37.7343 4.42895 41.173 5.88462 41.7512L6.96863 42.2077L5.04839 42.3903C3.99535 42.512 2.57065 42.8163 1.8583 43.0902C0.619434 43.5771 0.557491 43.6684 0.712349 44.6422C1.05304 46.681 3.84049 49.1459 6.81377 50.0893C7.49515 50.3327 7.68098 50.4545 7.27835 50.4849C6.22531 50.5458 3.59272 51.9151 2.66357 52.9194L1.73442 53.8627L2.88037 55.0191C4.21215 56.3581 5.57491 57.0884 7.24738 57.3623L8.45527 57.5449L7.37126 58.2752C6.25628 59.0056 4.64575 61.1661 4.64575 61.8965C4.64575 62.4747 6.47309 63.4789 7.92876 63.7223C8.61013 63.8136 9.91094 63.7832 10.8401 63.6311C12.1409 63.4485 12.4197 63.4485 11.9551 63.7223C9.94192 64.8787 8.36236 67.3132 8.36236 69.2912C8.36236 70.1737 10.0968 71.0258 11.8312 70.9953C13.3178 70.9649 13.6585 70.8128 16.5699 68.7434C17.0964 68.3783 16.7247 68.7739 15.7646 69.6259C13.6895 71.4822 13.163 72.5473 13.4417 74.3123C13.7514 76.2599 13.9682 76.4729 16.0743 76.6251C17.8707 76.7468 17.9636 76.7163 18.8927 75.7426C19.4502 75.1644 20.1006 74.3732 20.3794 73.9471C20.9678 73.0646 25.7065 66.8872 25.9543 66.6437C26.233 66.3698 25.6446 67.3741 24.9322 68.3174C23.3836 70.4171 19.8219 76.5033 19.8219 77.1119C19.8219 77.4467 20.1006 78.4205 20.4104 79.2725C20.9988 80.7941 20.9988 80.7941 22.5164 80.8854C24.6535 81.0071 25.3039 80.3985 27.348 76.2599C29.7948 71.3301 29.9187 71.604 27.7506 76.9598C26.6357 79.6681 26.6976 80.7941 27.9674 82.2852L28.9895 83.472L30.4762 83.046C32.799 82.3765 32.9849 82.0113 35.029 74.1601C35.2148 73.3689 35.4316 72.7603 35.4936 72.8212C35.5555 72.8516 35.4007 74.3123 35.1839 76.0469C34.9361 77.751 34.8122 79.4247 34.9051 79.729C34.998 80.0637 35.6794 80.7941 36.4537 81.3723L37.8164 82.4069L39.0863 81.7679C40.9756 80.7637 41.1924 80.2463 41.4092 76.2599C41.564 73.3994 41.6879 72.7299 42.0286 72.8516C42.4932 73.0342 43.6391 72.4256 44.8161 71.4214L45.4974 70.8432L46.0239 71.9996C46.3337 72.7299 46.5814 74.3427 46.6744 76.2295C46.8292 79.1813 46.7053 79.8507 45.6833 82.2852C45.4665 82.8025 45.5284 82.833 46.2407 82.6504C47.015 82.4678 47.046 82.4982 46.7363 83.1677C46.0859 84.5675 43.2365 85.3587 41.7499 84.5675C41.1614 84.2632 41.1304 84.2936 41.3162 85.024C41.5021 85.7239 41.3782 85.8152 40.2632 86.1195C38.4049 86.6064 36.7015 88.4323 36.0511 90.5624C35.6175 92.0535 35.6175 92.5709 35.9581 94.6402C36.2988 96.8008 36.2988 97.1051 35.8033 97.8354C35.3387 98.5353 35.0909 98.6266 34.2237 98.5049C33.2946 98.3527 33.2017 98.4136 33.3875 98.9005C33.5114 99.2048 33.914 99.8134 34.2857 100.239C35.2148 101.274 37.1041 101.335 38.4978 100.361L39.427 99.6917L39.2411 101.365C39.1482 102.278 38.9934 103.252 38.8695 103.526C38.7146 103.922 38.8075 103.982 39.396 103.861C39.7986 103.769 40.4181 103.404 40.7897 103.1C41.3782 102.552 41.4711 102.552 41.7189 103.009C41.9976 103.465 42.0596 103.465 42.4003 103.039C43.0816 102.248 43.4223 102.491 43.3294 103.678C43.2365 104.743 43.2984 104.835 43.9488 104.743C44.909 104.652 45.5284 104.135 45.993 103.07L46.3646 102.187L46.9841 103.435L47.6345 104.682L48.2229 103.769C48.7495 102.948 48.8733 102.887 49.245 103.283C49.4928 103.617 50.1742 103.769 51.2272 103.769C52.9306 103.769 53.643 103.313 54.4792 101.731C55.0367 100.635 54.8819 100.513 53.1474 100.605C51.6608 100.665 51.382 100.574 50.9794 99.9351C49.8954 98.3223 50.7936 95.2792 52.5899 94.6097C53.0545 94.4271 54.1076 94.3358 54.9128 94.4271C57.5454 94.6706 59.4657 97.1659 59.4657 100.361V102.187L57.4835 103.891C56.1827 104.987 55.3464 105.991 55.1296 106.691C54.6651 108.06 54.8819 108.243 56.0278 107.452C56.5234 107.086 57.3906 106.721 57.979 106.6C58.9082 106.417 58.9701 106.447 58.5675 106.904C58.3507 107.178 56.957 107.999 55.4703 108.699C52.8377 109.947 50.36 111.59 48.3778 113.355C46.6744 114.907 44.7541 114.998 44.3824 113.568C44.2895 113.142 44.3515 112.564 44.5683 112.26C44.7541 111.955 44.909 111.621 44.909 111.529C44.909 111.286 43.2675 111.742 42.6171 112.168C40.8517 113.355 40.2942 116.337 41.5331 117.889L42.1835 118.681L41.564 119.228C41.1924 119.502 40.6658 120.233 40.3252 120.811C39.5199 122.241 39.8606 124.888 40.9756 126.349C41.4401 126.927 41.8118 127.871 41.8737 128.54L41.9667 129.727L42.9268 128.936C43.6082 128.358 43.9488 127.749 44.1037 126.836L44.3205 125.528L45.0329 127.11C46.5814 130.67 49.5857 132.101 52.0944 130.427L53.1784 129.727L54.0146 131.036C54.6341 131.979 55.3464 132.588 56.5853 133.166C58.1649 133.926 58.4126 133.987 59.5896 133.622C62.1292 132.892 62.0673 132.861 62.6867 134.048C63.0274 134.657 63.8327 135.57 64.4831 136.087L65.66 137L66.8369 136.087C67.4873 135.57 68.2926 134.657 68.6333 134.048C69.2527 132.861 69.1908 132.892 71.7305 133.622C72.9074 133.987 73.1552 133.926 74.7347 133.166C75.9736 132.588 76.6859 131.979 77.3054 131.036L78.1416 129.727L79.2256 130.427C81.7033 132.101 84.7695 130.67 86.2872 127.171L86.9376 125.619L87.2783 126.988C87.526 127.871 87.9596 128.631 88.4861 129.027L89.3534 129.697L89.4463 128.51C89.5082 127.871 89.8799 126.927 90.2515 126.44C91.2117 125.193 91.4594 124.523 91.4904 123.093C91.5214 121.785 90.7781 120.05 89.756 119.228L89.1366 118.681L89.787 117.889C91.0258 116.337 90.4683 113.355 88.7029 112.168C88.0525 111.742 86.411 111.286 86.411 111.529C86.411 111.621 86.5659 111.955 86.7517 112.26C86.9685 112.564 87.0305 113.142 86.9376 113.568C86.5659 114.998 84.6457 114.907 82.9422 113.355C80.96 111.59 78.4823 109.947 75.8497 108.699C74.3631 107.999 72.9693 107.178 72.7525 106.904C72.3499 106.447 72.4118 106.417 73.341 106.6C73.9295 106.721 74.7967 107.086 75.2922 107.452C76.4382 108.243 76.655 108.06 76.1904 106.691C75.9736 105.991 75.1373 104.987 73.8365 103.891L71.8543 102.187V100.361C71.8543 97.1659 73.7746 94.6706 76.4072 94.4271C77.2124 94.3358 78.2655 94.4271 78.7301 94.6097C80.5264 95.2792 81.4246 98.3223 80.3406 99.9351C79.938 100.574 79.6592 100.665 78.1726 100.605C76.4382 100.513 76.2833 100.635 76.8408 101.731C77.677 103.313 78.3894 103.769 80.0928 103.769C81.1459 103.769 81.8272 103.617 82.075 103.283C82.4467 102.887 82.5706 102.948 83.0971 103.769L83.6855 104.682L84.3359 103.435L84.9554 102.187L85.327 103.07C85.7916 104.135 86.411 104.652 87.3712 104.743C88.0216 104.835 88.0835 104.743 87.9906 103.709C87.8977 102.491 88.2384 102.248 88.9198 103.039C89.2604 103.465 89.3224 103.465 89.6011 103.009C89.8489 102.552 89.9418 102.552 90.5303 103.1C90.9019 103.404 91.5214 103.769 91.924 103.861C92.5125 103.982 92.6054 103.922 92.4505 103.526C92.3266 103.252 92.1718 102.278 92.0789 101.365L91.893 99.6917L92.8222 100.361C94.2159 101.335 96.1052 101.274 97.0343 100.239C97.406 99.8134 97.8086 99.2048 97.9325 98.9005C98.1183 98.4136 98.0254 98.3527 97.0963 98.5049C96.2291 98.6266 95.9813 98.5353 95.5167 97.8354C95.0212 97.1051 95.0212 96.8008 95.3619 94.6402C95.7026 92.5709 95.7026 92.0535 95.269 90.5624C94.6185 88.4323 92.9151 86.6064 91.0568 86.1195C90.0038 85.8456 89.8179 85.6935 89.9728 85.2066C90.1586 84.6588 90.0657 84.6284 88.7339 84.7805C86.9995 85.024 85.1102 84.2936 84.5837 83.1981C84.274 82.4982 84.305 82.4678 85.0793 82.6504C85.7916 82.833 85.8536 82.8025 85.6367 82.2852C84.6147 79.8507 84.4908 79.1813 84.6457 76.0773C84.7386 73.8863 84.9554 72.5777 85.327 71.8778C85.8536 70.8736 85.8536 70.8736 86.5349 71.4214C87.6809 72.4256 88.8268 73.0342 89.2914 72.8516C89.6321 72.7299 89.756 73.3994 89.9108 76.2599C90.1276 80.2463 90.3445 80.7637 92.2337 81.7679L93.5036 82.4069L94.8663 81.3723C95.6406 80.7941 96.322 80.0637 96.3839 79.7899C96.4768 79.516 96.353 77.8423 96.1362 76.0773C95.9194 74.3123 95.7955 72.8516 95.8264 72.7908C95.8884 72.7603 96.1052 73.3689 96.291 74.1601C96.7246 75.7426 97.3131 77.964 97.8396 79.9116C98.3352 81.707 99.1404 82.5591 100.844 83.046L102.33 83.472L103.353 82.2852C104.622 80.7941 104.684 79.6681 103.569 76.9598C101.401 71.604 101.525 71.3301 103.972 76.2599C106.016 80.3985 106.667 81.0071 108.804 80.8854C110.321 80.7941 110.321 80.7941 110.91 79.2725C111.219 78.4205 111.498 77.4467 111.498 77.1119C111.498 76.5033 107.936 70.4171 106.388 68.3174C105.675 67.3741 105.087 66.3698 105.366 66.6437C105.613 66.8872 110.352 73.0646 110.941 73.9471C111.219 74.3732 111.87 75.1644 112.427 75.7426C113.356 76.7163 113.449 76.7468 115.246 76.6251C117.352 76.4729 117.569 76.2599 117.878 74.3123C118.157 72.5473 117.631 71.4822 115.555 69.6259C114.595 68.7739 114.255 68.3783 114.75 68.7434C117.661 70.8128 118.002 70.9649 119.489 70.9953C121.223 71.0258 122.958 70.1737 122.958 69.2912C122.958 67.3132 121.378 64.8787 119.365 63.7223C118.9 63.4485 119.179 63.4485 120.48 63.6311C121.409 63.7832 122.71 63.8136 123.391 63.7223C124.847 63.4789 126.674 62.4747 126.674 61.8965C126.674 61.1661 125.064 59.0056 123.949 58.2752L122.865 57.5449L124.073 57.3623C125.745 57.0884 127.108 56.3581 128.44 55.0191L129.586 53.8627L128.656 52.9194C127.727 51.9151 125.095 50.5458 124.042 50.4849C123.639 50.4545 123.825 50.3327 124.506 50.0893C127.48 49.1459 130.267 46.681 130.608 44.6422C130.763 43.6684 130.701 43.5771 129.462 43.0902C128.749 42.8163 127.325 42.512 126.272 42.3903L124.351 42.2077L125.435 41.7512C126.891 41.173 130.267 37.7343 130.546 36.5475C130.639 36.0302 130.886 35.5433 131.041 35.452C131.196 35.3303 131.32 35.026 131.32 34.7217C131.32 34.2652 130.979 34.1131 129.709 33.9609C128.811 33.8696 127.325 33.9 126.426 34.0522L124.754 34.2956L126.148 32.8958C128.316 30.7352 129.4 28.7268 129.524 26.7792L129.617 25.1055L128.594 25.0142C127.541 24.9229 124.382 25.7141 123.67 26.2619C122.896 26.8096 123.267 26.2315 124.506 24.9229C125.714 23.6144 127.201 21.0278 127.48 19.6584C127.82 17.9847 127.634 14.9111 127.077 13.6635L126.488 12.3549L124.785 13.9982C123.856 14.9111 121.843 16.9805 120.356 18.5629C118.869 20.1453 117.785 21.1495 117.971 20.7843C118.157 20.4191 118.436 20.054 118.591 19.9627C118.962 19.7192 120.635 16.8283 121.936 14.2112C123.856 10.3161 124.382 6.29919 123.298 3.52998C122.741 2.03886 121.285 0 120.821 0C120.697 0 120.17 0.912918 119.706 2.03886C117.723 6.66437 110.848 18.928 109.516 20.2366C109.268 20.5104 108.958 20.5409 108.68 20.3583C108.029 19.9627 107.782 20.0235 107.782 20.6322C107.782 21.3929 105.056 25.9271 103.786 27.2661L102.733 28.392L102.207 27.753C101.68 27.1139 101.649 27.1139 100.72 28.5442C100.193 29.3354 99.1404 30.6135 98.4281 31.3743C92.3886 37.7039 90.1276 40.8687 90.1276 42.9989C90.1276 44.0031 91.0568 45.8898 91.955 46.681C93.4416 48.02 93.8752 49.8763 93.07 51.3978C91.5833 54.2583 87.4641 55.2626 85.1412 53.3454C84.0262 52.4325 84.0262 52.189 85.0793 51.6717C87.0305 50.7283 87.9287 47.6852 86.8756 45.6768L86.3491 44.6726L85.6987 45.2812C83.9953 46.8027 82.6325 46.8332 80.4025 45.3725L79.1637 44.5813L80.6813 44.3987C82.4776 44.2161 83.6236 43.0597 83.6236 41.4469C83.6236 40.4731 83.5926 40.4427 82.9422 40.8992C81.9821 41.5686 81.1149 41.5078 79.907 40.6861C78.2035 39.5906 77.6151 38.2212 77.6151 35.6042C77.6151 32.4394 79.0088 28.8789 81.3627 26.1706C81.9821 25.4402 82.1989 25.349 82.6635 25.6228C83.0971 25.8967 83.5307 25.8358 84.5218 25.4707C86.1323 24.8316 87.7119 24.8012 89.0746 25.4402C90.6232 26.1706 90.9639 26.7183 91.0258 28.5138C91.0568 29.4267 91.8621 29.1224 92.4815 27.9356C93.1319 26.7183 92.6054 25.1968 91.2736 24.3752C90.7161 24.0404 90.4064 23.7361 90.5303 23.7361C90.9949 23.7361 92.1408 24.436 93.7823 25.775C95.207 26.9009 95.6716 27.0835 96.8485 27.0835C97.9015 27.0835 98.5519 26.8705 99.3572 26.2923C100.658 25.2881 101.773 23.0666 101.308 22.2754C101.092 21.9103 100.999 21.8798 100.968 22.1841C100.968 22.3972 100.627 22.9145 100.162 23.3101C99.0785 24.3143 97.437 24.2534 94.6185 23.0971C93.3487 22.5797 91.6453 22.0624 90.84 21.9407L89.3534 21.7277L90.5612 21.2104C91.2117 20.9365 92.1718 20.693 92.6983 20.693C93.7513 20.693 96.322 21.7885 96.322 22.245C96.322 22.3972 96.5388 22.5189 96.7866 22.5189C97.6228 22.5189 98.49 20.693 98.49 18.9585C98.49 16.1892 97.406 14.6068 94.9592 13.8156C94.092 13.5113 93.1938 13.0549 92.977 12.7201C92.7602 12.4158 92.3886 12.1724 92.1718 12.1724C91.924 12.1724 91.6762 11.9898 91.5833 11.7463C91.4285 11.4116 89.725 11.2899 82.1679 11.1986C75.478 11.1377 72.7525 10.9856 72.257 10.7117C71.6375 10.3769 71.5446 10.4074 71.5446 10.8334C71.5446 11.4725 73.31 13.0549 75.0135 13.9678L76.3452 14.6373L74.9515 14.4851C74.1772 14.4243 73.2171 14.2417 72.7835 14.1504C72.1331 13.9982 72.2879 14.2112 73.5578 15.3676L75.0754 16.7979L74.1772 17.5282C72.7525 18.6846 70.6774 19.4758 69.1908 19.4758C67.1466 19.4758 67.6112 20.5409 69.8102 20.906L70.8942 21.0886L70.1509 22.3363C69.7483 23.0058 68.974 24.6186 68.4475 25.8663C67.9209 27.1139 67.3634 28.4225 67.2086 28.7572C67.0537 29.092 66.6821 30.3701 66.4033 31.5569C66.1246 32.7741 65.7839 33.7783 65.66 33.7783C65.5361 33.7783 65.1954 32.7741 64.9167 31.5569C64.6379 30.3701 64.2663 29.092 64.1114 28.7572C63.9566 28.4225 63.3991 27.1139 62.8726 25.8663C62.346 24.6186 61.5717 23.0058 61.1691 22.3363L60.4258 21.0886L61.5098 20.906C63.7088 20.5409 64.1734 19.4758 62.1292 19.4758C60.6426 19.4758 58.5675 18.6846 57.1428 17.5282L56.2446 16.7979L57.7622 15.3676C59.0321 14.2112 59.1869 13.9982 58.5365 14.1504C58.1029 14.2417 57.1428 14.4243 56.3685 14.4851L54.9748 14.6373L56.3066 13.9678C58.01 13.0549 59.7754 11.4725 59.7754 10.8334C59.7754 10.4074 59.6825 10.3769 59.094 10.7117C58.5675 10.9856 55.842 11.1377 49.1521 11.1986C41.595 11.2899 39.8915 11.4116 39.7367 11.7463C39.6438 11.9898 39.396 12.1724 39.1482 12.1724C38.9314 12.1724 38.5598 12.4158 38.343 12.7201C38.1262 13.0549 37.228 13.5113 36.3608 13.8156C33.914 14.6068 32.83 16.1892 32.83 18.9585C32.83 20.693 33.6972 22.5189 34.5334 22.5189C34.7812 22.5189 34.998 22.3972 34.998 22.245C34.998 21.7885 37.5687 20.693 38.6217 20.693C39.1482 20.693 40.1084 20.9365 40.7588 21.2104L41.9667 21.7277L40.48 21.9407C39.6747 22.0624 37.9713 22.5797 36.7015 23.0971C33.883 24.2534 32.2415 24.3143 31.1575 23.3101C30.693 22.9145 30.3523 22.3972 30.3523 22.1841C30.3213 21.8798 30.2284 21.9103 30.0116 22.2754C29.547 23.0666 30.662 25.2881 31.9628 26.2923C32.7681 26.8705 33.4185 27.0835 34.4715 27.0835C35.6484 27.0835 36.113 26.9009 37.5377 25.775C39.1792 24.436 40.3252 23.7361 40.7897 23.7361C40.9136 23.7361 40.6039 24.01 40.0774 24.3447C38.281 25.4707 38.0332 27.7226 39.5199 28.9398C40.0774 29.3963 40.1703 29.305 40.3561 27.9052C40.542 26.5358 40.8826 26.0793 42.2454 25.4402C43.6082 24.8012 45.1877 24.8316 46.7982 25.4707C47.7893 25.8358 48.2229 25.8967 48.6565 25.6228C49.1211 25.349 49.3379 25.4402 49.9574 26.1706C52.3112 28.8789 53.7049 32.4394 53.7049 35.6042C53.7049 38.2212 53.1165 39.5906 51.413 40.6861C50.2051 41.5078 49.3379 41.5686 48.3778 40.8992C47.7274 40.4427 47.6964 40.4731 47.6964 41.4469C47.6964 43.0597 48.8424 44.2161 50.6387 44.3987L52.1563 44.5813L50.9175 45.3725C48.7185 46.8027 46.8292 46.7419 45.5594 45.2203C44.9399 44.49 44.7231 44.6117 44.2895 45.9203C43.5152 48.233 44.3824 50.7892 46.2407 51.6717C47.2938 52.189 47.2938 52.4325 46.1788 53.3454C43.8559 55.2626 39.7367 54.2583 38.25 51.3978C37.4448 49.8763 37.8784 48.02 39.365 46.681C40.2632 45.8898 41.1924 44.0031 41.1924 42.9989C41.1924 40.8687 38.9314 37.7039 32.8919 31.3743C32.1796 30.6135 31.1266 29.3354 30.6 28.5442C29.6709 27.1139 29.6399 27.1139 29.1134 27.753L28.5869 28.392L27.5338 27.2661C26.264 25.9271 23.5385 21.3929 23.5385 20.6322C23.5385 20.0235 23.2907 19.9627 22.6403 20.3583C22.3616 20.5409 22.0519 20.5104 21.8041 20.2366C20.4723 18.928 13.5966 6.66437 11.6144 2.03886C11.1498 0.912918 10.6233 0 10.4994 0C10.3445 0 9.87997 0.456467 9.4154 1.03465ZM65.9697 34.9956C65.9697 35.3303 65.8458 35.6042 65.66 35.6042C65.5051 35.6042 65.3503 35.3303 65.3503 34.9956C65.3503 34.6608 65.5051 34.3869 65.66 34.3869C65.8458 34.3869 65.9697 34.6608 65.9697 34.9956ZM29.8877 71.4822C29.2373 72.7908 28.9895 72.669 29.6399 71.3605C29.9187 70.7823 30.1974 70.3563 30.2903 70.4171C30.3523 70.478 30.1664 70.9649 29.8877 71.4822ZM101.711 71.4214C101.99 71.9691 102.145 72.4256 102.083 72.4256C101.897 72.4256 100.968 70.7519 100.968 70.4171C100.968 70.0824 101.123 70.3259 101.711 71.4214Z" fill="#EFF5FF"/>
</g>
<defs>
<clipPath id="clip0_7914_4596">
<rect width="125" height="129" fill="white"/>
</clipPath>
</defs>
</svg>
