<svg width="126" height="120" viewBox="0 0 126 120" fill="none" xmlns="http://www.w3.org/2000/svg">
<g clip-path="url(#clip0_7910_2186)">
<path fill-rule="evenodd" clip-rule="evenodd" d="M74.2096 17.125C77.2375 17.125 80.1414 18.3278 82.2824 20.4689C84.4235 22.6099 85.6263 25.5138 85.6263 28.5417V39.9583C85.6263 42.9862 84.4235 45.8901 82.2824 48.0311C80.1414 50.1722 77.2375 51.375 74.2096 51.375V62.7917H97.043C101.585 62.7917 105.941 64.5959 109.152 67.8075C112.364 71.019 114.168 75.3748 114.168 79.9167V85.625C117.196 85.625 120.1 86.8278 122.241 88.9689C124.382 91.1099 125.585 94.0138 125.585 97.0417V108.458C125.585 111.486 124.382 114.39 122.241 116.531C120.1 118.672 117.196 119.875 114.168 119.875H102.751C99.7234 119.875 96.8195 118.672 94.6785 116.531C92.5375 114.39 91.3346 111.486 91.3346 108.458V97.0417C91.3346 94.0138 92.5375 91.1099 94.6785 88.9689C96.8195 86.8278 99.7234 85.625 102.751 85.625V79.9167C102.751 78.4027 102.15 76.9508 101.079 75.8803C100.009 74.8097 98.5569 74.2083 97.043 74.2083H74.2096V85.625C77.2375 85.625 80.1414 86.8278 82.2824 88.9689C84.4235 91.1099 85.6263 94.0138 85.6263 97.0417V108.458C85.6263 111.486 84.4235 114.39 82.2824 116.531C80.1414 118.672 77.2375 119.875 74.2096 119.875H62.793C59.7651 119.875 56.8612 118.672 54.7202 116.531C52.5791 114.39 51.3763 111.486 51.3763 108.458V97.0417C51.3763 94.0138 52.5791 91.1099 54.7202 88.9689C56.8612 86.8278 59.7651 85.625 62.793 85.625V74.2083H39.9596C38.4457 74.2083 36.9938 74.8097 35.9232 75.8803C34.8527 76.9508 34.2513 78.4027 34.2513 79.9167V85.625C37.2792 85.625 40.1831 86.8278 42.3241 88.9689C44.4651 91.1099 45.668 94.0138 45.668 97.0417V108.458C45.668 111.486 44.4651 114.39 42.3241 116.531C40.1831 118.672 37.2792 119.875 34.2513 119.875H22.8346C19.8067 119.875 16.9029 118.672 14.7618 116.531C12.6208 114.39 11.418 111.486 11.418 108.458V97.0417C11.418 94.0138 12.6208 91.1099 14.7618 88.9689C16.9029 86.8278 19.8067 85.625 22.8346 85.625V79.9167C22.8346 75.3748 24.6389 71.019 27.8504 67.8075C31.062 64.5959 35.4178 62.7917 39.9596 62.7917H62.793V51.375C59.7651 51.375 56.8612 50.1722 54.7202 48.0311C52.5791 45.8901 51.3763 42.9862 51.3763 39.9583V28.5417C51.3763 25.5138 52.5791 22.6099 54.7202 20.4689C56.8612 18.3278 59.7651 17.125 62.793 17.125H74.2096ZM114.168 97.0417H102.751V108.458H114.168V97.0417ZM34.2513 97.0417H22.8346V108.458H34.2513V97.0417ZM74.2096 97.0417H62.793V108.458H74.2096V97.0417ZM74.2096 28.5417H62.793V39.9583H74.2096V28.5417Z" fill="#EFF5FF"/>
</g>
<defs>
<clipPath id="clip0_7910_2186">
<rect width="126" height="120" fill="white"/>
</clipPath>
</defs>
</svg>
