<svg width="210" height="78" viewBox="0 0 210 78" fill="none" xmlns="http://www.w3.org/2000/svg">
<g clip-path="url(#clip0_7910_1037)">
<path d="M79.37 22.9775L75.9124 23.1957C75.864 21.1957 75.0883 20.1955 73.5852 20.1955C71.861 20.1955 70.9994 21.7353 70.9994 24.8149C70.9994 26.5935 71.234 27.7992 71.7026 28.4327C72.1713 29.0662 72.8263 29.3825 73.6675 29.3825C75.0326 29.3825 75.8668 28.4897 76.1701 26.7042L79.37 26.9013C79.1638 28.5972 78.5353 29.8861 77.4865 30.7681C76.4372 31.6506 75.152 32.0917 73.6317 32.0917C71.7667 32.0917 70.2516 31.4446 69.0852 30.1505C67.9189 28.8565 67.3359 27.0677 67.3359 24.7836C67.3359 22.6449 67.8998 20.8944 69.0286 19.5307C70.1568 18.1675 71.698 17.4854 73.6526 17.4854C77.0374 17.4864 78.9432 19.3168 79.37 22.9775ZM88.1443 32.0921C86.2469 32.0921 84.7786 31.3759 83.7405 29.9431C82.7023 28.5108 82.1835 26.7766 82.1835 24.7421C82.1835 22.6729 82.7093 20.9463 83.7609 19.562C84.813 18.1778 86.3114 17.4859 88.2572 17.4859C90.2234 17.4859 91.7065 18.2245 92.7071 19.7022C93.7076 21.1798 94.2074 22.8701 94.2074 24.7734C94.2074 26.8289 93.6918 28.5626 92.6606 29.9744C91.6299 31.3862 90.1245 32.0921 88.1443 32.0921ZM88.2372 20.1955C86.5065 20.1955 85.6416 21.725 85.6416 24.7841C85.6416 27.8497 86.507 29.3825 88.2372 29.3825C89.9127 29.3825 90.7506 27.8534 90.7506 24.7944C90.7506 21.7288 89.9127 20.1955 88.2372 20.1955ZM97.5996 29.1961L100.491 17.7041H105.586L108.498 29.1961H109.861V34.8541H107.725L107.384 31.8744H98.6935L98.3632 34.8541H96.2372V29.1961H97.5996ZM100.464 29.1961H104.981L103.003 20.3828H102.445L100.464 29.1961ZM122.625 20.4029H115.916V23.3097H121.19V25.9773H115.916V29.0709H122.625V31.8739H112.561V17.7041H122.625V20.4029ZM129.433 30.4729V31.8744H126.192V17.7041H129.433V23.7381C129.433 24.7748 129.402 25.8217 129.34 26.8794C129.875 25.6703 130.401 24.6958 130.916 23.9563L134.222 19.178V17.7041H137.463V31.8744H134.222V25.4517C134.222 24.3744 134.253 23.4942 134.315 22.8103C133.868 23.8731 133.34 24.8434 132.729 25.7199L129.433 30.4729ZM127.296 13.4794H128.917C129.027 14.3862 129.577 14.8393 130.568 14.8393C131.586 14.8393 132.147 14.3862 132.25 13.4794H133.871C133.754 14.4138 133.401 15.1439 132.813 15.6695C132.224 16.1956 131.466 16.4586 130.537 16.4586C129.663 16.4586 128.925 16.2147 128.324 15.7265C127.722 15.2388 127.379 14.4894 127.296 13.4794ZM153.282 22.9775L149.824 23.1957C149.776 21.1957 149 20.1955 147.497 20.1955C145.773 20.1955 144.911 21.7353 144.911 24.8149C144.911 26.5935 145.145 27.7992 145.614 28.4327C146.083 29.0662 146.737 29.3825 147.579 29.3825C148.944 29.3825 149.778 28.4897 150.081 26.7042L153.281 26.9013C153.075 28.5972 152.447 29.8861 151.397 30.7681C150.348 31.6502 149.063 32.0917 147.542 32.0917C145.678 32.0917 144.162 31.4446 142.996 30.1505C141.83 28.8565 141.247 27.0677 141.247 24.7836C141.247 22.6449 141.811 20.8944 142.939 19.5307C144.068 18.1675 145.609 17.4854 147.563 17.4854C150.949 17.4864 152.854 19.3168 153.282 22.9775ZM165.9 17.7041V20.5071H162.412V31.8744H159.068V20.5071H155.559V17.7041H165.9ZM168.9 17.7041H175.464C176.641 17.7041 177.525 17.8494 178.116 18.1399C178.709 18.4305 179.196 18.8454 179.582 19.3845C179.967 19.9241 180.161 20.5809 180.161 21.3555C180.161 22.9252 179.314 23.9731 177.621 24.4987C178.598 24.7201 179.331 25.1602 179.82 25.818C180.308 26.4757 180.553 27.1924 180.553 27.9684C180.553 29.0279 180.154 29.944 179.356 30.7158C178.557 31.4881 177.26 31.8739 175.464 31.8739H168.9V17.7041ZM172.193 20.2063V23.3102H174.69C175.605 23.3102 176.181 23.1284 176.419 22.765C176.656 22.4015 176.775 22.0539 176.775 21.7218C176.775 21.362 176.677 21.0523 176.48 20.7926C176.285 20.5333 176.069 20.3702 175.836 20.3044C175.602 20.2385 175.141 20.2058 174.453 20.2058L172.193 20.2063ZM172.193 25.8324V29.248H174.726C175.591 29.248 176.202 29.0957 176.559 28.7911C176.917 28.4865 177.095 28.0609 177.095 27.5143C177.095 27.0574 176.924 26.6631 176.58 26.3309C176.237 25.9988 175.667 25.8324 174.871 25.8324H172.193ZM187.495 30.4729V31.8744H184.254V17.7041H187.495V23.7381C187.495 24.7748 187.464 25.8217 187.402 26.8794C187.937 25.6703 188.462 24.6958 188.978 23.9563L192.284 19.178V17.7041H195.525V31.8744H192.284V25.4517C192.284 24.3744 192.315 23.4942 192.377 22.8103C191.93 23.8731 191.401 24.8434 190.791 25.7199L187.495 30.4729ZM210.002 20.4029H203.292V23.3097H208.567V25.9773H203.292V29.0709H210.002V31.8739H199.938V17.7041H210.002L210.002 20.4029ZM71.247 38.2911V44.9488L75.6638 38.2911H78.8229L75.439 43.3496L79.6692 52.4609H76.035L73.2239 46.3073L71.247 49.2113V52.4605H68.0062V38.2911H71.247ZM89.8393 38.2911L94.2496 52.4609H90.7023L89.8346 49.5439H85.2793L84.3963 52.4609H81.5025L86.0183 38.2911H89.8393ZM86.0713 46.9277H89.0566L87.5772 41.9556L86.0713 46.9277ZM97.0013 49.7826L99.8923 38.2911H104.988L107.9 49.7826H109.263V55.4406H107.126L106.786 52.4609H98.0952L97.7649 55.4406H95.6389V49.7826H97.0013ZM99.8649 49.7826H104.382L102.404 40.9694H101.847L99.8649 49.7826ZM115.317 47.1982V52.4614H111.963V38.2911H117.516C118.754 38.2911 119.702 38.4247 120.359 38.6905C121.017 38.9573 121.603 39.4328 122.119 40.1182C122.635 40.8031 122.893 41.644 122.893 42.6405C122.893 43.3394 122.756 44.021 122.48 44.6858C122.205 45.3501 121.816 45.8728 121.314 46.2531C120.811 46.6339 120.324 46.8866 119.853 47.0109C119.382 47.1356 118.644 47.1978 117.64 47.1978L115.317 47.1982ZM115.204 44.6232H117.351C118.17 44.6232 118.744 44.433 119.075 44.0523C119.404 43.6715 119.57 43.2356 119.57 42.7442C119.57 42.1696 119.386 41.7131 119.018 41.3735C118.65 41.0348 118.09 40.8647 117.341 40.8647H115.204V44.6232ZM132.382 38.2911L136.792 52.4609H133.245L132.377 49.5439H127.822L126.939 52.4609H124.045L128.56 38.2911H132.382ZM128.613 46.9277H131.599L130.119 41.9556L128.613 46.9277ZM146.137 52.4609L142.661 40.9068V52.4609H139.895V38.2911H145.034L147.506 46.7722L150.107 38.2911H155.263V52.4609H151.939V40.9072L148.396 52.4614H146.137V52.4609Z" fill="url(#paint0_linear_7910_1037)"/>
<path d="M70.2762 63.853L67.8125 59.1098H69.508L70.9864 62.1175L72.1988 59.1098H73.6066L71.548 64.1319C71.2911 64.7649 71.0059 65.2181 70.6929 65.4895C70.3793 65.761 69.932 65.8969 69.351 65.8969H68.6728V64.5991H69.2176C69.475 64.5991 69.6845 64.5566 69.8461 64.4725C70.0073 64.3879 70.1508 64.1814 70.2762 63.853Z" fill="#FD6229"/>
<path d="M78.4778 65.8969V63.2564C78.0561 63.6549 77.5173 63.853 76.8614 63.853C76.4563 63.853 76.0903 63.7614 75.7643 63.5774C75.4377 63.3928 75.2055 63.148 75.0671 62.8411C74.9286 62.5346 74.8594 62.1296 74.8594 61.6255V59.1093H76.4118V61.675C76.4118 62.0105 76.4777 62.2408 76.6096 62.3669C76.7416 62.4926 76.9622 62.5557 77.2725 62.5557C77.704 62.5557 78.1062 62.4347 78.4788 62.1927V59.1102H80.0316V65.8974L78.4778 65.8969Z" fill="#FD6229"/>
<path d="M86.9648 60.4025H83.7514V61.7946H86.2778V63.0724H83.7514V64.5547H86.9648V65.8969H82.1447V59.1098H86.9648V60.4025Z" fill="#FD6229"/>
<path d="M88.6719 65.8969V59.1098H93.1905V60.3277H90.2247V61.8101H91.3613C91.9513 61.8101 92.4185 61.867 92.7632 61.9815C93.1074 62.0955 93.3884 62.3141 93.6058 62.6355C93.8232 62.9574 93.9323 63.3531 93.9323 63.8236C93.9323 64.4767 93.7335 64.9859 93.3364 65.3503C92.9392 65.7147 92.3846 65.8974 91.673 65.8974L88.6719 65.8969ZM90.2247 64.6136H91.4408C91.7274 64.6136 91.9485 64.5384 92.1031 64.3879C92.2583 64.2366 92.3358 64.0389 92.3358 63.7932C92.3358 63.2662 91.9944 63.0027 91.3121 63.0027H90.2247V64.6136Z" fill="#FD6229"/>
<path d="M100.902 59.1098V65.8969H99.3501V63.0976H97.2441V65.8969H95.6913V59.1098H97.2441V61.7549H99.3501V59.1098H100.902Z" fill="#FD6229"/>
<path d="M103.066 65.8969V59.1098H104.619V61.6008H105.776C106.339 61.6008 106.796 61.6596 107.145 61.7773C107.494 61.8946 107.78 62.131 108.003 62.4856C108.226 62.8406 108.337 63.2504 108.337 63.7143C108.337 64.3435 108.141 64.8654 107.749 65.2774C107.356 65.6904 106.751 65.8969 105.934 65.8969H103.066ZM104.619 64.6136H105.781C106.416 64.6136 106.735 64.3174 106.735 63.7241C106.735 63.1308 106.425 62.8341 105.805 62.8341H104.618V64.6136H104.619ZM109.024 65.8969V59.1098H110.576V65.8969H109.024Z" fill="#FD6229"/>
<path d="M114.291 65.2256V65.8964H112.738V59.1093H114.291V61.9993C114.291 62.4959 114.276 62.9976 114.247 63.504C114.502 62.9252 114.755 62.458 115.001 62.1039L116.585 59.8152V59.1088H118.137V65.896H116.585V62.8201C116.585 62.3039 116.599 61.882 116.629 61.555C116.415 62.0642 116.162 62.5286 115.869 62.9481L114.291 65.2256ZM113.268 57.0864H114.044C114.097 57.5204 114.36 57.7377 114.835 57.7377C115.322 57.7377 115.591 57.5204 115.64 57.0864H116.417C116.36 57.534 116.191 57.8834 115.91 58.1353C115.629 58.3875 115.265 58.5127 114.82 58.5127C114.402 58.5127 114.048 58.3959 113.76 58.1623C113.471 57.9288 113.307 57.5704 113.268 57.0864Z" fill="#FD6229"/>
<path d="M123.609 65.8969V59.1098H125.162V64.5547H127.114V59.1098H128.667V64.5547H129.498V67.3241H128.44L128.311 65.8969H123.609Z" fill="#FD6229"/>
<path d="M135.719 60.4025H132.506V61.7946H135.032V63.0724H132.506V64.5547H135.719V65.8969H130.898V59.1098H135.719V60.4025Z" fill="#FD6229"/>
<path d="M142.637 59.1098V65.8969H141.084V63.0976H138.978V65.8969H137.426V59.1098H138.978V61.7549H141.084V59.1098H142.637Z" fill="#FD6229"/>
<path d="M149.024 59.1098V60.4524H147.353V65.8969H145.751V60.4524H144.07V59.1098H149.024Z" fill="#FD6229"/>
<path d="M152.068 63.3756V65.8964H150.461V59.1093H153.121C153.714 59.1093 154.168 59.1728 154.483 59.3013C154.798 59.4289 155.079 59.6564 155.326 59.9848C155.573 60.3128 155.697 60.7155 155.697 61.1929C155.697 61.5274 155.631 61.854 155.499 62.1721C155.367 62.4907 155.181 62.7411 154.941 62.9233C154.699 63.1051 154.467 63.2265 154.241 63.2859C154.015 63.3457 153.662 63.3756 153.181 63.3756H152.068ZM152.013 62.1431H153.042C153.434 62.1431 153.71 62.0516 153.867 61.8699C154.026 61.6872 154.105 61.4784 154.105 61.2434C154.105 60.9677 154.017 60.7496 153.84 60.587C153.664 60.4244 153.396 60.3436 153.037 60.3436H152.013V62.1431Z" fill="#FD6229"/>
<path fill-rule="evenodd" clip-rule="evenodd" d="M52.4446 68.0814C52.3517 68.0814 52.2653 68.0132 52.2653 67.9403V62.5585C52.2653 62.4861 52.3517 62.4178 52.4446 62.4178C54.1386 62.4178 55.5205 61.3359 55.5205 60.0091C55.5205 58.6823 54.1386 57.6003 52.4446 57.6003H12.8409C11.6523 57.6003 10.538 57.8592 9.58576 58.3086C8.63401 57.8592 7.51969 57.6003 6.33105 57.6003C2.84317 57.6003 0 59.8269 0 62.5585V67.9403C0 70.6724 2.84317 72.8989 6.33105 72.8989C7.51969 72.8989 8.63401 72.6401 9.58576 72.1907C10.538 72.6401 11.6523 72.8989 12.8409 72.8989H52.4451C54.1391 72.8989 55.521 71.8169 55.521 70.4902C55.521 69.1629 54.1386 68.0814 52.4446 68.0814ZM12.8409 70.4902C11.0508 70.4902 9.58576 69.3428 9.58576 67.9403C9.58576 69.3428 8.12075 70.4902 6.33105 70.4902C4.54043 70.4902 3.07541 69.3428 3.07541 67.9403V62.5585C3.07541 61.1565 4.54043 60.0096 6.33105 60.0096C8.12075 60.0096 9.58576 61.1565 9.58576 62.5585C9.58576 61.1565 11.0508 60.0096 12.8409 60.0096H52.4451C51.1547 60.0096 50.0367 60.6071 49.5109 61.4648H12.3523C11.8808 61.4648 11.4981 61.7643 11.4981 62.1338C11.4981 62.5033 11.8808 62.8028 12.3523 62.8028H49.1894V64.5804H12.3523C11.8808 64.5804 11.4981 64.8803 11.4981 65.2494C11.4981 65.6194 11.8808 65.9184 12.3523 65.9184H49.1894V67.696H12.3523C11.8808 67.696 11.4981 67.9959 11.4981 68.365C11.4981 68.735 11.8808 69.0345 12.3523 69.0345H49.5109C50.0367 69.8922 51.1547 70.4897 52.4446 70.4897H12.8409V70.4902Z" fill="url(#paint1_linear_7910_1037)"/>
<path fill-rule="evenodd" clip-rule="evenodd" d="M11.4453 64.5869H21.208V78L16.1757 75.7211L11.4453 78V64.5869Z" fill="#FD6229"/>
<path d="M47.743 22.6552V48.1625C47.743 48.1625 32.1616 44.1611 29.841 55.1645C29.841 55.1645 22.6836 29.1503 39.9539 22.8285C39.9549 22.828 39.9567 22.8276 39.9576 22.8276C40.1198 22.772 40.2842 22.7145 40.4495 22.6552H47.743Z" fill="url(#paint2_linear_7910_1037)"/>
<path d="M27.8199 54.6567C27.6425 54.439 27.4627 54.2283 27.2802 54.0251C18.563 43.6379 16.5193 31.9977 16.7064 22.814C16.902 13.221 19.532 6.3092 19.532 6.3092C19.532 6.3092 17.5751 29.2779 37.9329 22.3207C20.6625 28.6425 27.8199 54.6567 27.8199 54.6567Z" fill="#FD6229"/>
<path d="M29.3091 19.4798C31.8723 19.4798 33.9503 17.3899 33.9503 14.8118C33.9503 12.2337 31.8723 10.1438 29.3091 10.1438C26.7458 10.1438 24.6678 12.2337 24.6678 14.8118C24.6678 17.3899 26.7458 19.4798 29.3091 19.4798Z" fill="#FD6229"/>
<path d="M24.754 54.025C18.1396 46.6479 8.38658 48.4881 8.38658 48.4881V22.814H14.1802C13.993 31.9977 16.0368 43.6379 24.754 54.025Z" fill="url(#paint3_linear_7910_1037)"/>
<path d="M20.0282 0L20.7863 2.34709H23.2402L21.255 3.79767L22.013 6.14475L20.0282 4.69417L18.043 6.14475L18.8015 3.79767L16.8163 2.34709H19.2697L20.0282 0Z" fill="#FD6229"/>
<path d="M29.8397 55.165C29.8397 55.165 39.1189 48.5315 50.833 54.5333V25.6007H48.9021V50.9417C48.9021 50.9417 36.7463 45.6066 29.8397 55.165Z" fill="url(#paint4_linear_7910_1037)"/>
<path d="M6.78297 25.0924V50.3222C6.78297 50.3222 14.1693 48.0994 24.7868 54.6567C24.7868 54.6567 9.87743 50.2461 4.68346 54.0251V25.0924H6.78297Z" fill="url(#paint5_linear_7910_1037)"/>
</g>
<defs>
<linearGradient id="paint0_linear_7910_1037" x1="210.002" y1="34.4599" x2="67.3354" y2="34.4599" gradientUnits="userSpaceOnUse">
<stop stop-color="#003F84"/>
<stop offset="0.0332" stop-color="#004286"/>
<stop offset="0.4112" stop-color="#1A649E"/>
<stop offset="0.6006" stop-color="#2673A8"/>
<stop offset="0.6983" stop-color="#0086BC"/>
<stop offset="0.8333" stop-color="#009CD5"/>
<stop offset="0.9384" stop-color="#00A8E4"/>
<stop offset="1" stop-color="#00ADEA"/>
</linearGradient>
<linearGradient id="paint1_linear_7910_1037" x1="-0.000464494" y1="65.2497" x2="55.5208" y2="65.2497" gradientUnits="userSpaceOnUse">
<stop stop-color="#003F84"/>
<stop offset="0.0332" stop-color="#004286"/>
<stop offset="0.4112" stop-color="#1A649E"/>
<stop offset="0.6006" stop-color="#2673A8"/>
<stop offset="0.6983" stop-color="#0086BC"/>
<stop offset="0.8333" stop-color="#009CD5"/>
<stop offset="0.9384" stop-color="#00A8E4"/>
<stop offset="1" stop-color="#00ADEA"/>
</linearGradient>
<linearGradient id="paint2_linear_7910_1037" x1="28.3708" y1="38.9101" x2="47.7429" y2="38.9101" gradientUnits="userSpaceOnUse">
<stop stop-color="#003F84"/>
<stop offset="0.0332" stop-color="#004286"/>
<stop offset="0.4112" stop-color="#1A649E"/>
<stop offset="0.6006" stop-color="#2673A8"/>
<stop offset="0.6983" stop-color="#0086BC"/>
<stop offset="0.8333" stop-color="#009CD5"/>
<stop offset="0.9384" stop-color="#00A8E4"/>
<stop offset="1" stop-color="#00ADEA"/>
</linearGradient>
<linearGradient id="paint3_linear_7910_1037" x1="21.1212" y1="49.4642" x2="4.25198" y2="26.0492" gradientUnits="userSpaceOnUse">
<stop stop-color="#003F84"/>
<stop offset="0.0332" stop-color="#004286"/>
<stop offset="0.4112" stop-color="#1A649E"/>
<stop offset="0.6006" stop-color="#2673A8"/>
<stop offset="0.6983" stop-color="#0086BC"/>
<stop offset="0.8333" stop-color="#009CD5"/>
<stop offset="0.9384" stop-color="#00A8E4"/>
<stop offset="1" stop-color="#00ADEA"/>
</linearGradient>
<linearGradient id="paint4_linear_7910_1037" x1="48.1737" y1="51.3873" x2="36.2783" y2="34.8763" gradientUnits="userSpaceOnUse">
<stop stop-color="#195EA8"/>
<stop offset="1" stop-color="#00ACCF"/>
</linearGradient>
<linearGradient id="paint5_linear_7910_1037" x1="14.6377" y1="52.8837" x2="12.8492" y2="26.4328" gradientUnits="userSpaceOnUse">
<stop stop-color="#003F84"/>
<stop offset="0.0332" stop-color="#004286"/>
<stop offset="0.4112" stop-color="#1A649E"/>
<stop offset="0.6006" stop-color="#2673A8"/>
<stop offset="0.6983" stop-color="#0086BC"/>
<stop offset="0.8333" stop-color="#009CD5"/>
<stop offset="0.9384" stop-color="#00A8E4"/>
<stop offset="1" stop-color="#00ADEA"/>
</linearGradient>
<clipPath id="clip0_7910_1037">
<rect width="210" height="78" fill="white"/>
</clipPath>
</defs>
</svg>
