<svg width="46" height="46" viewBox="0 0 46 46" fill="none" xmlns="http://www.w3.org/2000/svg">
<g clip-path="url(#clip0_7910_1391)">
<path d="M36.209 8.42578H33.5671C32.837 8.42578 32.2461 9.01658 32.2461 9.74677C32.2461 10.4769 32.8369 11.0678 33.5671 11.0678H36.209C36.9391 11.0678 37.53 10.477 37.53 9.74677C37.5299 9.01658 36.9391 8.42578 36.209 8.42578Z" fill="#FD6229"/>
<path d="M22.8631 3.87188L21.5422 1.22998C21.2133 0.577219 20.4225 0.315394 19.7697 0.639182C19.117 0.965519 18.8525 1.75891 19.1789 2.41167L20.4999 5.05357C20.8258 5.70369 21.6152 5.97079 22.2724 5.64437C22.925 5.31803 23.1894 4.52464 22.8631 3.87188Z" fill="#FD6229"/>
<path d="M31.5223 0.639166C30.8721 0.315378 30.0763 0.577291 29.7499 1.22997L28.4289 3.87187C28.1025 4.52463 28.367 5.31793 29.0197 5.64435C29.6787 5.97166 30.4672 5.70148 30.7921 5.05355L32.1131 2.41165C32.4395 1.75889 32.175 0.965504 31.5223 0.639166Z" fill="#FD6229"/>
<path d="M17.7168 8.42578H15.0749C14.3448 8.42578 13.7539 9.01658 13.7539 9.74677C13.7539 10.4769 14.3447 11.0678 15.0749 11.0678H17.7168C18.4469 11.0678 19.0378 10.477 19.0378 9.74677C19.0378 9.01658 18.4469 8.42578 17.7168 8.42578Z" fill="#FD6229"/>
<path d="M9.79238 21.7231H4.50849C3.779 21.7231 3.1875 22.3146 3.1875 23.0441V44.1793C3.1875 44.9088 3.77891 45.5003 4.50849 45.5003H9.79229C10.5218 45.5003 11.1133 44.9089 11.1133 44.1793V23.0441C11.1133 22.3146 10.522 21.7231 9.79238 21.7231Z" fill="#FD6229"/>
<path d="M42.7886 25.2243C42.5556 23.1752 40.6414 21.7228 38.5791 21.7228H28.2805C29.1557 20.1556 29.6255 15.723 29.6047 13.9123C29.5701 10.9151 27.088 8.51318 24.0907 8.51318H23.0007C22.2706 8.51318 21.6797 9.10398 21.6797 9.83418C21.6797 12.8888 20.4903 18.4024 18.247 20.6457C16.7372 22.1555 15.4464 22.7027 13.7539 23.5485V43.3694C16.3452 44.2331 19.6353 45.5 24.65 45.5H33.2911C36.1383 45.5 38.3558 42.8631 37.2525 40.0769C38.9334 39.619 40.173 38.0774 40.173 36.2533C40.173 35.7386 40.0737 35.2459 39.8944 34.793C42.727 34.0213 43.7696 30.5237 41.8036 28.3276C42.5259 27.5206 42.9242 26.4169 42.7886 25.2243Z" fill="#FD6229"/>
</g>
<defs>
<clipPath id="clip0_7910_1391">
<rect width="45" height="45" fill="white" transform="translate(0.5 0.500488)"/>
</clipPath>
</defs>
</svg>
