<svg width="46" height="46" viewBox="0 0 46 46" fill="none" xmlns="http://www.w3.org/2000/svg">
<path d="M18.7051 2.80981C15.1941 3.55669 11.9387 5.20674 9.26058 7.59692C6.58247 9.9871 4.57436 13.0347 3.43466 16.4386C2.29495 19.8424 2.06311 23.4847 2.76203 27.0056C3.46094 30.5265 5.06644 33.8041 7.41987 36.5146C7.70019 36.8517 7.86594 37.2692 7.8931 37.7068C7.92026 38.1444 7.80742 38.5792 7.57094 38.9484L6.6229 40.4758C6.42908 40.7882 6.32226 41.1466 6.31348 41.5141C6.30471 41.8816 6.39431 42.2448 6.57301 42.566C6.75171 42.8872 7.01301 43.1549 7.32987 43.3412C7.64673 43.5275 8.00763 43.6258 8.37522 43.6258H22.4089C27.7404 43.6834 32.8945 41.7124 36.8273 38.1122C40.7601 34.5119 43.1776 29.5515 43.5901 24.2357C43.7785 21.0636 43.2324 17.8909 41.9941 14.9644C40.7557 12.038 38.8587 9.43685 36.4506 7.36352C34.0426 5.29019 31.1885 3.80063 28.1106 3.01079C25.0327 2.22096 21.814 2.15218 18.7051 2.80981ZM23.0012 9.87584C23.5717 9.87589 24.1294 10.0451 24.6038 10.3621C25.0781 10.6791 25.4478 11.1296 25.6661 11.6567C25.8844 12.1838 25.9415 12.7638 25.8301 13.3233C25.7188 13.8829 25.4441 14.3968 25.0406 14.8002C24.6372 15.2036 24.1232 15.4783 23.5637 15.5896C23.0041 15.7009 22.4241 15.6438 21.8971 15.4254C21.37 15.2071 20.9195 14.8374 20.6025 14.363C20.2856 13.8886 20.1164 13.3309 20.1164 12.7604C20.1165 11.9954 20.4204 11.2617 20.9614 10.7207C21.5024 10.1798 22.2362 9.87585 23.0012 9.87584ZM25.3084 34.2508H23.0012C22.755 34.2509 22.5111 34.2024 22.2836 34.1082C22.0561 34.014 21.8494 33.8759 21.6753 33.7018C21.5011 33.5277 21.363 33.321 21.2688 33.0935C21.1746 32.8659 21.1262 32.6221 21.1262 32.3758V22.7125H20.6941C20.1968 22.7125 19.7199 22.5149 19.3683 22.1633C19.0166 21.8116 18.8191 21.3347 18.8191 20.8375C18.8191 20.3402 19.0166 19.8633 19.3683 19.5116C19.7199 19.16 20.1968 18.9625 20.6941 18.9625H23.0012C23.2475 18.9624 23.4913 19.0108 23.7188 19.105C23.9464 19.1992 24.1531 19.3374 24.3272 19.5115C24.5013 19.6856 24.6394 19.8923 24.7336 20.1198C24.8278 20.3474 24.8763 20.5912 24.8762 20.8375V30.5008H25.3084C25.8056 30.5008 26.2826 30.6984 26.6342 31.05C26.9858 31.4016 27.1834 31.8786 27.1834 32.3758C27.1834 32.8731 26.9858 33.35 26.6342 33.7017C26.2826 34.0533 25.8056 34.2508 25.3084 34.2508Z" fill="#FD6229"/>
</svg>
