<svg width="45" height="45" viewBox="0 0 45 45" fill="none" xmlns="http://www.w3.org/2000/svg">
<g clip-path="url(#clip0_7910_1090)">
<path d="M6.88326 5.31055C6.88205 5.31055 6.88068 5.31055 6.87947 5.31055C6.45386 5.31055 6.05356 5.47646 5.75128 5.77797C5.44568 6.08282 5.27734 6.48873 5.27734 6.92086V31.0672C5.27734 31.9526 6.00053 32.6747 6.88962 32.677C10.6378 32.6859 16.9175 33.4672 21.2497 38.0007V12.7309C21.2497 12.4307 21.173 12.1488 21.0283 11.9154C17.4727 6.18934 10.6399 5.31933 6.88326 5.31055Z" fill="#FD6229"/>
<path d="M39.7222 31.0671V6.92061C39.7222 6.48849 39.5538 6.08258 39.2482 5.77773C38.946 5.47621 38.5454 5.3103 38.1202 5.3103C38.1188 5.3103 38.1175 5.3103 38.1163 5.3103C34.3597 5.31924 27.527 6.18924 23.9712 11.9153C23.8265 12.1487 23.75 12.4306 23.75 12.7308V38.0004C28.0821 33.4669 34.3619 32.6857 38.11 32.6768C38.999 32.6745 39.7222 31.9524 39.7222 31.0671Z" fill="#FD6229"/>
<path d="M43.3922 10.8789H42.2246V31.067C42.2246 33.3278 40.3826 35.1713 38.1184 35.1769C34.9391 35.1844 29.697 35.8061 25.9844 39.3199C32.4053 37.7478 39.1741 38.7698 43.0317 39.6489C43.5134 39.7586 44.0111 39.6452 44.397 39.3376C44.7816 39.0308 45.0022 38.5722 45.0022 38.0799V12.4889C45.0023 11.6012 44.2799 10.8789 43.3922 10.8789Z" fill="#FD6229"/>
<path d="M2.77759 31.067V10.8789H1.61001C0.722427 10.8789 0 11.6012 0 12.4889V38.0795C0 38.5719 0.220607 39.0304 0.605154 39.3372C0.990761 39.6446 1.48804 39.7584 1.97046 39.6484C5.82805 38.7691 12.597 37.7473 19.0176 39.3195C15.3052 35.8058 10.0631 35.1843 6.88381 35.1767C4.61971 35.1713 2.77759 33.3278 2.77759 31.067Z" fill="#FD6229"/>
</g>
<defs>
<clipPath id="clip0_7910_1090">
<rect width="45" height="45" fill="white"/>
</clipPath>
</defs>
</svg>
