<svg width="46" height="46" viewBox="0 0 46 46" fill="none" xmlns="http://www.w3.org/2000/svg">
<g clip-path="url(#clip0_7910_1339)">
<path d="M38.5331 14.4336H32.8847C30.6005 14.4336 28.7421 12.5752 28.7421 10.291V4.64114C28.7421 2.35027 26.888 0.5 24.601 0.5H18.7636C16.4541 0.5 14.6211 2.37427 14.6211 4.64255V30.0605C14.6211 32.3701 16.4954 34.2031 18.7636 34.2031H38.5331C40.848 34.2031 42.6758 32.3231 42.6758 30.0605V18.5762C42.6757 16.2919 40.8173 14.4336 38.5331 14.4336ZM33.9816 19.4949L28.3332 27.9676C27.835 28.744 26.6375 28.7437 26.1393 27.9676L23.3151 23.7313C22.9111 23.1254 23.0749 22.3069 23.6807 21.903C24.2864 21.4991 25.1049 21.6628 25.5089 22.2687L27.2362 24.8596L31.7877 18.0323C32.1916 17.4265 33.0101 17.2629 33.6159 17.6666C34.2219 18.0706 34.3856 18.8892 33.9816 19.4949Z" fill="#FD6229"/>
<path d="M6.33597 35.709V11.9556C4.62228 12.4433 3.32422 14.0103 3.32422 15.9394V41.3574C3.32422 43.6415 5.18258 45.4999 7.46677 45.4999H27.2364C29.1285 45.4999 30.7272 44.2243 31.2207 42.4882H13.1152C9.37716 42.4882 6.33597 39.4471 6.33597 35.709Z" fill="#FD6229"/>
<path d="M11.9843 30.0605V6.30713C10.2706 6.79492 8.97266 8.3621 8.97266 10.2909V35.7089C8.97266 37.9931 10.831 39.8515 13.1152 39.8515H32.8848C34.7769 39.8515 36.3756 38.5758 36.8691 36.8397H18.7637C15.0256 36.8398 11.9843 33.7986 11.9843 30.0605Z" fill="#FD6229"/>
<path d="M31.3805 10.291C31.3805 11.1213 32.056 11.7969 32.8863 11.7969H38.5348C39.817 11.7969 41.0172 12.1548 42.0408 12.776C41.6376 11.8202 41.05 10.9419 40.2945 10.1864L32.9911 2.88291C32.2358 2.12758 31.3577 1.54021 30.4023 1.13696C31.0229 2.16019 31.3806 3.35963 31.3806 4.64116V10.291H31.3805Z" fill="#FD6229"/>
</g>
<defs>
<clipPath id="clip0_7910_1339">
<rect width="45" height="45" fill="white" transform="translate(0.5 0.5)"/>
</clipPath>
</defs>
</svg>
