<svg width="32" height="32" viewBox="0 0 32 32" fill="none" xmlns="http://www.w3.org/2000/svg">
<path d="M24.7516 10.0253C24.7516 9.94312 24.7416 9.86035 24.7207 9.77881C24.0677 7.21411 22.318 5.11902 20 3.9671V6C20 6.55225 19.5527 7 19 7C18.4473 7 18 6.55225 18 6V3.28076V3C18 2.44769 17.5523 2 17 2H15C14.4477 2 14 2.44769 14 3V3.28064V6C14 6.55225 13.5522 7 13 7C12.4478 7 12 6.55225 12 6V3.9671C9.68152 5.11896 7.93182 7.21411 7.27881 9.77881C7.25806 9.86041 7.25067 9.94293 7.25452 10.0247C6.54358 10.1425 6 10.7557 6 11.5C6 12.3284 6.67157 13 7.5 13H24.5C25.3284 13 26 12.3284 26 11.5C26 10.7578 25.4596 10.1455 24.7516 10.0253Z" fill="#2063CC"/>
<path d="M23 15H9V16C9 17.9091 9.76996 19.6403 11.0134 20.9044C11.0103 20.9366 11 20.9672 11 21V22.6835L15.9751 24.8945L21 22.3819V21C21 20.9671 20.9897 20.9365 20.9866 20.9042C22.23 19.6401 23 17.9089 23 16V15Z" fill="#2063CC"/>
<path d="M10 30H22V24.1182L16.4473 26.8945C16.3066 26.9648 16.1533 27 16 27C15.8618 27 15.7231 26.9712 15.5938 26.9136L10 24.4275V30Z" fill="#2063CC"/>
<path d="M8.00001 24.1121C5.61867 24.8415 3.55134 26.3698 2.16798 28.4453C1.96339 28.752 1.94435 29.1465 2.11818 29.4717C2.29249 29.7969 2.63136 30 3.00001 30H8.00001V24.1121Z" fill="#2063CC"/>
<path d="M29.832 28.4454C28.4488 26.3701 26.3816 24.8418 24 24.1123V30.0001H29C29.3691 30.0001 29.708 29.797 29.8818 29.4718C30.0557 29.1466 30.0361 28.7521 29.832 28.4454Z" fill="#2063CC"/>
</svg>
