<svg width="32" height="32" viewBox="0 0 32 32" fill="none" xmlns="http://www.w3.org/2000/svg">
<path d="M18.5 24H19C19.5304 24 20.0391 23.7893 20.4142 23.4142C20.7893 23.0391 21 22.5304 21 22V16.5C21 15.7044 20.6839 14.9413 20.1213 14.3787C19.5587 13.8161 18.7956 13.5 18 13.5H14C13.2044 13.5 12.4413 13.8161 11.8787 14.3787C11.3161 14.9413 11 15.7044 11 16.5V22C11 22.5304 11.2107 23.0391 11.5858 23.4142C11.9609 23.7893 12.4696 24 13 24H13.5V31.5H18.5V24Z" fill="#2063CC"/>
<path d="M16 13C17.6569 13 19 11.6569 19 10C19 8.34315 17.6569 7 16 7C14.3431 7 13 8.34315 13 10C13 11.6569 14.3431 13 16 13Z" fill="#2063CC"/>
<path d="M29.9994 15V20.5C29.9994 21.0304 29.7887 21.5391 29.4136 21.9142C29.0385 22.2893 28.5298 22.5 27.9994 22.5H27.4994V30H22.4994V22.5H21.9544C21.9847 22.3351 21.9997 22.1677 21.9994 22V16.5C21.9995 15.8978 21.8633 15.3033 21.6009 14.7612C21.3386 14.2191 20.9568 13.7435 20.4844 13.37C20.7551 12.9491 21.1273 12.603 21.5668 12.3636C22.0063 12.1242 22.4989 11.9992 22.9994 12H26.9994C27.795 12 28.5581 12.3161 29.1207 12.8787C29.6833 13.4413 29.9994 14.2044 29.9994 15Z" fill="#2063CC"/>
<path d="M25 11.5C26.6569 11.5 28 10.1569 28 8.5C28 6.84315 26.6569 5.5 25 5.5C23.3431 5.5 22 6.84315 22 8.5C22 10.1569 23.3431 11.5 25 11.5Z" fill="#2063CC"/>
<path d="M10 16.5V22C9.99964 22.1677 10.0147 22.3351 10.045 22.5H9.5V30H4.5V22.5H4C3.46957 22.5 2.96086 22.2893 2.58579 21.9142C2.21071 21.5391 2 21.0304 2 20.5V15C2 14.2044 2.31607 13.4413 2.87868 12.8787C3.44129 12.3161 4.20435 12 5 12H9C9.50046 11.9992 9.99308 12.1242 10.4326 12.3636C10.872 12.603 11.2443 12.9491 11.515 13.37C11.0426 13.7435 10.6608 14.2191 10.3984 14.7612C10.136 15.3033 9.99983 15.8978 10 16.5Z" fill="#2063CC"/>
<path d="M7 11.5C8.65685 11.5 10 10.1569 10 8.5C10 6.84315 8.65685 5.5 7 5.5C5.34315 5.5 4 6.84315 4 8.5C4 10.1569 5.34315 11.5 7 11.5Z" fill="#2063CC"/>
<path d="M12 6.5C13.6569 6.5 15 5.15685 15 3.5C15 1.84315 13.6569 0.5 12 0.5C10.3431 0.5 9 1.84315 9 3.5C9 5.15685 10.3431 6.5 12 6.5Z" fill="#2063CC"/>
<path d="M20 6.5C21.6569 6.5 23 5.15685 23 3.5C23 1.84315 21.6569 0.5 20 0.5C18.3431 0.5 17 1.84315 17 3.5C17 5.15685 18.3431 6.5 20 6.5Z" fill="#2063CC"/>
</svg>
