<svg width="32" height="32" viewBox="0 0 32 32" fill="none" xmlns="http://www.w3.org/2000/svg">
<g clip-path="url(#clip0_7910_1148)">
<path d="M16.0008 0.802246C7.62872 0.802246 0.800781 7.6292 0.800781 16.0001C0.800781 24.3709 7.62872 31.1979 16.0008 31.1979C24.3728 31.1979 31.2008 24.3709 31.2008 16.0001C31.2008 7.6292 24.3728 0.802246 16.0008 0.802246ZM16.0008 12.9122C17.7138 12.9122 19.089 14.2873 19.089 16.0001C19.089 17.7128 17.7138 19.0879 16.0008 19.0879C14.2878 19.0879 12.9125 17.7128 12.9125 16.0001C12.9125 14.2873 14.2878 12.9122 16.0008 12.9122ZM4.08205 16.0001C4.08205 11.8026 6.27761 8.08755 9.55888 5.96468L13.3227 11.8267C11.9474 12.7193 11.0306 14.239 11.0306 16.0001H4.08205ZM16.0008 27.9171C13.6363 27.9171 11.4167 27.2175 9.55888 26.0113L13.3227 20.1493C14.0947 20.6559 15.0116 20.9454 16.0008 20.9454C16.99 20.9454 17.9068 20.6559 18.6789 20.1493L22.4427 26.0113C20.5849 27.2175 18.3652 27.9171 16.0008 27.9171ZM20.9709 16.0001C20.9709 14.239 20.0541 12.7193 18.6789 11.8267L22.4427 5.96468C25.7481 8.08755 27.9195 11.7784 27.9195 16.0001H20.9709Z" fill="#2063CC"/>
</g>
<defs>
<clipPath id="clip0_7910_1148">
<rect width="32" height="32" fill="white"/>
</clipPath>
</defs>
</svg>
