<svg width="32" height="32" viewBox="0 0 32 32" fill="none" xmlns="http://www.w3.org/2000/svg">
<path d="M3.18777 16.4961C2.60588 16.4961 2.06018 16.8028 1.61783 17.3964C1.17542 17.9899 0.875 18.861 0.875 19.8417V26.834H6.80679V20.3623C6.80679 18.9874 7.15666 17.7345 7.77468 16.7792C7.8382 16.6809 7.90745 16.5882 7.97769 16.4961H3.18777ZM24.0168 16.4961C24.0869 16.5882 24.1562 16.6809 24.2197 16.7792C24.8377 17.7345 25.1877 18.9874 25.1877 20.3623V26.834H31.1195V19.8417C31.1195 18.861 30.8204 17.9899 30.378 17.3964C29.9356 16.8028 29.3885 16.4961 28.8066 16.4961H24.0168ZM10.4382 16.55C9.92146 16.55 9.40121 16.8695 8.96219 17.5483C8.52293 18.2271 8.2207 19.2329 8.2207 20.3623V28.2479H23.7737C23.7737 25.6194 23.7737 22.9908 23.7737 20.3623C23.7737 19.2329 23.4714 18.2271 23.0322 17.5483C22.5931 16.8695 22.073 16.55 21.5562 16.55H10.4382Z" fill="#2063CC"/>
<path d="M15.9962 3.75244C13.0602 3.75244 10.6954 6.11722 10.6954 9.05324C10.6954 11.9893 13.0602 14.354 15.9962 14.354C18.9323 14.354 21.297 11.9893 21.297 9.05324C21.297 6.11722 18.9323 3.75244 15.9962 3.75244ZM8.92666 5.16635C6.33506 5.16635 4.25 7.25142 4.25 9.84304C4.24997 12.4346 6.33506 14.5211 8.92666 14.5211C9.80516 14.5211 10.621 14.2784 11.3209 13.8597C10.066 12.6387 9.28145 10.9366 9.28145 9.05324C9.28145 7.70438 9.68526 6.44937 10.3737 5.39556C9.91866 5.24755 9.4333 5.16635 8.92666 5.16635ZM23.0658 5.16635C22.5592 5.16635 22.0738 5.24756 21.6188 5.39556C22.3071 6.44937 22.7109 7.70438 22.7109 9.05324C22.7109 10.9376 21.9262 12.6413 20.6702 13.8625C21.37 14.2812 22.1874 14.5211 23.0658 14.5211C25.6573 14.5211 27.7424 12.4346 27.7424 9.84304C27.7424 7.25142 25.6573 5.16635 23.0658 5.16635Z" fill="#2063CC"/>
</svg>
