<svg width="32" height="32" viewBox="0 0 32 32" fill="none" xmlns="http://www.w3.org/2000/svg">
<g clip-path="url(#clip0_7910_1139)">
<path d="M9.86644 24.2372C9.65013 24.1179 9.39549 24.0888 9.15794 24.1562L4.03515 25.6093C2.03296 26.1359 0.6875 27.8808 0.6875 29.9511V31.1022C0.6875 31.5976 1.08887 31.9992 1.58423 31.9999H15.0774C15.0757 31.9775 15.0739 27.1086 15.0739 27.1086L9.86644 24.2372ZM10.695 30.1195H5.07006C4.55224 30.1195 4.13256 29.6999 4.13256 29.1821C4.13256 28.6645 4.55224 28.2446 5.07006 28.2446H10.695C11.2126 28.2446 11.6325 28.6645 11.6325 29.1821C11.6325 29.6999 11.2126 30.1195 10.695 30.1195Z" fill="#2063CC"/>
<path d="M23.0481 7.86766C22.7549 4.57934 20.1985 1.93261 16.9516 1.5V0.937498C16.9516 0.419677 16.532 0 16.0141 0C15.4966 0 15.0766 0.419677 15.0766 0.937498V1.5C11.8298 1.93261 9.27368 4.57934 8.98047 7.86766C11.0132 7.35912 13.4629 7.08348 16.0141 7.08348C18.5654 7.08324 21.0154 7.35912 23.0481 7.86766ZM15.0766 4.65258C15.0766 4.13622 15.4978 3.71508 16.0141 3.71508C16.5307 3.71508 16.9516 4.13622 16.9516 4.65258C16.9516 5.16894 16.5307 5.59008 16.0141 5.59008C15.4978 5.59008 15.0766 5.16894 15.0766 4.65258Z" fill="#2063CC"/>
<path d="M20.2839 21.0293C19.0107 21.8181 17.5437 22.2405 16.0132 22.2405C16.0129 22.2405 15.9646 22.2405 15.9404 22.2402C14.4038 22.2268 12.9663 21.7783 11.7422 21.0127V23.1294L16.0222 25.4892L20.2839 23.1396V21.0293Z" fill="#2063CC"/>
<path d="M27.9876 25.6091L22.8648 24.1562C22.6272 24.0888 22.3726 24.1179 22.1563 24.237L16.9488 27.1083C16.9488 27.1083 16.9468 31.9775 16.9453 31.9999H30.4385C30.9338 31.9992 31.3352 31.5973 31.3352 31.102V29.9511C31.3352 27.8808 29.9898 26.1359 27.9876 25.6091ZM26.9526 30.1196H21.3277C20.8101 30.1196 20.3902 29.6999 20.3902 29.1821C20.3902 28.6645 20.8101 28.2446 21.3277 28.2446H26.9526C27.4705 28.2446 27.8901 28.6645 27.8901 29.1821C27.8901 29.6999 27.4705 30.1196 26.9526 30.1196Z" fill="#2063CC"/>
<path d="M5.59228 14.9328C5.99267 15.3127 6.46313 15.5989 6.95654 15.8406C7.25415 15.9866 7.58862 16.1286 7.96655 16.2646C7.90063 15.8457 7.86596 15.4167 7.86596 14.98V12.7891C7.86596 12.5715 7.89453 12.3594 7.94824 12.1565C8.23754 12.0249 8.58617 11.8894 9.00561 11.7554C9.24071 11.6799 9.48632 11.6089 9.74096 11.5425V14.0217C9.74096 17.4751 12.5024 20.3349 15.9558 20.3652C17.6513 20.3799 19.2509 19.7214 20.4541 18.5146C21.6384 17.3266 22.2878 15.7558 22.2827 14.092L22.2763 11.5408C22.5332 11.6079 22.781 11.6794 23.018 11.7554C23.4343 11.8884 23.7802 12.0227 24.0678 12.1533C24.1213 12.3542 24.1501 12.5642 24.1508 12.7795L24.1577 15.0444C24.1589 15.4551 24.1296 15.8613 24.0708 16.2607C26.5273 15.3747 27.1919 14.2405 27.2561 13.3454C27.2565 13.3398 27.2568 13.3342 27.257 13.3286C27.2927 12.7663 27.0856 12.2307 26.7377 11.7956C26.737 11.7983 26.7365 11.8008 26.7358 11.8035C26.4897 11.4971 26.177 11.2307 25.8427 11.0034C25.5358 10.7947 25.2107 10.6186 24.9021 10.4749C24.4768 10.2766 24.0363 10.1123 23.5896 9.96948C21.552 9.31738 18.8608 8.95825 16.0117 8.95825C13.1628 8.95825 10.4717 9.31738 8.43407 9.96948C5.39892 10.9407 4.76172 12.26 4.76172 13.1958C4.76172 13.73 4.98364 14.2312 5.3186 14.6396C5.40332 14.7432 5.49512 14.8408 5.59228 14.9328Z" fill="#2063CC"/>
</g>
<defs>
<clipPath id="clip0_7910_1139">
<rect width="32" height="32" fill="white"/>
</clipPath>
</defs>
</svg>
