<svg width="32" height="32" viewBox="0 0 32 32" fill="none" xmlns="http://www.w3.org/2000/svg">
<g clip-path="url(#clip0_7910_1245)">
<path d="M10.4492 0.000976562V11.4107L11.4403 10.9818V0.000976562H10.4492Z" fill="#2063CC"/>
<path d="M25.1856 5.98794L24.6405 5.87276L24.6576 5.79163C24.7238 5.47826 24.5236 5.17063 24.2102 5.10432C23.8963 5.0377 23.5891 5.23845 23.5229 5.55176L23.5058 5.63294L23.2674 5.58257C23.2058 5.56957 23.1416 5.57444 23.0826 5.59663L21.5102 6.18813C21.3162 6.26113 21.3031 6.42932 21.271 6.58106C21.2332 6.75975 21.3475 6.93525 21.5262 6.97306L23.1501 7.31625L22.4046 10.8433C22.2658 10.9245 22.1409 11.0343 22.0396 11.1721L19.7358 14.3088C17.7983 12.9411 17.0797 12.439 17.0833 12.4416C16.6194 12.116 16.0817 11.927 15.5162 11.8884C14.7018 11.8327 13.6782 11.7692 12.8531 11.7245C12.3709 11.6984 11.8967 11.7848 11.4536 11.9771C10.2271 12.5095 10.607 12.3447 7.28669 13.7815C6.94313 13.9302 6.68745 14.229 6.59357 14.5913C6.49957 14.9536 6.57813 15.339 6.80613 15.6357L9.89881 19.6611C10.3075 20.1931 11.0701 20.2925 11.6014 19.8842C12.1332 19.4757 12.2331 18.7133 11.8246 18.1816L9.68093 15.3915L11.4286 14.6352C11.3415 14.7105 10.9404 15.057 10.8525 15.1329C10.9404 15.2472 11.6676 16.1937 11.7687 16.3254L17.1093 16.4623C17.4687 16.4717 17.8331 16.5803 18.1522 16.7925L18.1991 16.1967L19.3088 16.98C19.8495 17.3616 20.596 17.2401 20.9877 16.7068L23.9968 12.6097C24.3938 12.0692 24.2774 11.3092 23.737 10.9122C23.691 10.8785 23.6429 10.8497 23.5941 10.8234L24.2846 7.55612L24.8297 7.67131C25.0084 7.70906 25.1839 7.59481 25.2217 7.41612L25.4406 6.37994C25.4786 6.20125 25.3642 6.02575 25.1856 5.98794Z" fill="#2063CC"/>
<path d="M14.8626 6.04157C13.4771 5.93257 12.2655 6.96738 12.1563 8.35294C12.0466 9.74805 13.0938 10.9511 14.4678 11.0592C15.8398 11.1672 17.064 10.1449 17.1739 8.74781C17.283 7.36231 16.2482 6.15069 14.8626 6.04157Z" fill="#2063CC"/>
<path d="M20.5421 22.663L17.8585 20.5605L17.8831 20.2483C17.6369 20.3607 17.3541 20.4262 17.0613 20.4262C17.0213 20.4262 12.7352 20.316 12.6953 20.315C12.6274 20.4041 12.5522 20.4889 12.4701 20.5688C11.9353 21.0888 11.1855 21.3235 10.435 21.1813L10.4 21.5929C10.3528 22.147 10.5687 22.6912 10.9822 23.063C11.5935 23.6127 12.4423 24.3748 13.597 25.4119L10.0381 29.6007C9.51709 30.2139 9.59178 31.1335 10.2051 31.6546C10.8182 32.1755 11.7378 32.1009 12.259 31.4876L16.7356 26.2186C17.2464 25.6173 17.1858 24.7184 16.5988 24.1912L15.5851 23.2808L16.7143 23.3696L16.7192 23.37L17.9833 24.3604L16.5989 29.4416C16.3874 30.218 16.8454 31.0189 17.6217 31.2305C18.3986 31.442 19.1991 30.9838 19.4106 30.2077L21.0494 24.193C21.2035 23.6273 21.0036 23.0245 20.5421 22.663Z" fill="#2063CC"/>
<path d="M17.0872 17.382L12.4922 17.2642L12.6881 17.5192C13.1163 18.0765 13.2492 18.7673 13.1125 19.4047C13.1337 19.4052 17.0392 19.5055 17.0604 19.5055C17.6342 19.5055 18.1067 19.0478 18.1215 18.4708C18.1365 17.8845 17.6728 17.3973 17.0872 17.382Z" fill="#2063CC"/>
</g>
<defs>
<clipPath id="clip0_7910_1245">
<rect width="32" height="32" fill="white" transform="translate(0 0.000976562)"/>
</clipPath>
</defs>
</svg>
