<svg width="32" height="32" viewBox="0 0 32 32" fill="none" xmlns="http://www.w3.org/2000/svg">
<path d="M23.4397 5.24L21.4147 3.015C21.124 2.69524 20.7696 2.43977 20.3744 2.26498C19.9792 2.09018 19.5518 1.99993 19.1197 2H12.8797C12.4475 1.99993 12.0201 2.09018 11.6249 2.26498C11.2297 2.43977 10.8754 2.69524 10.5847 3.015L8.55966 5.24C8.15841 5.68291 7.89316 6.23198 7.79563 6.82161C7.6981 7.41123 7.7724 8.01647 8.00966 8.565L11.3447 16.225C11.585 16.7782 11.982 17.2491 12.4866 17.5796C12.9912 17.9101 13.5815 18.0858 14.1847 18.085H17.8147C18.4179 18.0858 19.0082 17.9101 19.5128 17.5796C20.0174 17.2492 20.4143 16.7783 20.6547 16.225L23.9897 8.565C24.2269 8.01647 24.3012 7.41123 24.2037 6.82161C24.1062 6.23198 23.8409 5.68291 23.4397 5.24ZM15.9997 5.31C17.1045 5.31075 18.164 5.74964 18.9457 6.53043C19.7274 7.31121 20.1676 8.37015 20.1697 9.475C19.961 14.9996 12.0375 14.9981 11.8296 9.47495C11.8317 8.3701 12.2719 7.31117 13.0536 6.53039C13.8353 5.74962 14.8948 5.31074 15.9997 5.31Z" fill="#2063CC"/>
<path d="M15.9982 12.6449C16.8386 12.6438 17.6442 12.3095 18.2385 11.7152C18.8327 11.121 19.1671 10.3153 19.1682 9.4749C19.0173 5.28647 12.9784 5.28754 12.8281 9.47495C12.8292 10.3153 13.1636 11.121 13.7578 11.7152C14.3521 12.3095 15.1578 12.6438 15.9982 12.6449Z" fill="#2063CC"/>
<path d="M18.548 19.0149C18.1772 19.0966 14.6253 19.0881 13.858 19.0749C14.413 20.4937 16.4747 21.7275 17.233 23.0148C17.4025 23.2978 17.4891 23.6226 17.4829 23.9524C17.4767 24.2822 17.378 24.6035 17.198 24.8799C16.5609 25.8274 15.1759 26.2034 14.358 25.1098C14.0923 24.7809 13.892 24.4041 13.768 23.9999C13.3695 23.0657 12.7031 22.2706 11.853 21.7149C11.7207 21.623 11.5624 21.5759 11.4014 21.5807C11.2403 21.5856 11.0851 21.642 10.9586 21.7416C10.832 21.8413 10.7408 21.979 10.6984 22.1344C10.656 22.2898 10.6646 22.4548 10.723 22.6049C11.0571 23.6189 11.216 24.6825 11.193 25.7499C10.9377 27.4109 12.4627 29.0346 14.043 29.6199C15.4908 30.1583 17.0919 30.1081 18.503 29.4798C23.2566 27.27 21.7101 22.4657 20.0879 20.7899L18.548 19.0149Z" fill="#2063CC"/>
</svg>
