<svg width="32" height="32" viewBox="0 0 32 32" fill="none" xmlns="http://www.w3.org/2000/svg">
<g clip-path="url(#clip0_7910_1332)">
<path d="M6.625 24.4375C10.3045 24.4375 13.1875 22.3785 13.1875 19.75V18.8125H11.0825L8.23363 8.84219C9.27081 8.65669 10.1121 8.45181 10.8786 8.26287C12.1741 7.94437 13.3553 7.67525 15.0625 7.59681V26.8107L7.27688 32H24.7213L16.9375 26.8108V7.59681C18.6448 7.67519 19.8259 7.94437 21.1214 8.26287C21.8879 8.45181 22.7292 8.65669 23.7664 8.84219L20.9175 18.8125H18.8125V19.75C18.8125 22.3785 21.6955 24.4375 25.375 24.4375C29.0545 24.4375 32 22.3785 32 19.75V18.8125H29.8325L27.1022 9.2575C28.437 9.36575 30.0603 9.4375 32 9.4375V7.5625C26.3768 7.5625 23.9706 5.83125 21.9024 4.30412C20.4555 3.235 19.0779 2.15756 16.9375 1.92544V0H15.0625V1.92544C12.9221 2.1575 11.5445 3.235 10.0976 4.30412C8.02944 5.83125 5.62319 7.5625 0 7.5625V9.4375C1.93919 9.4375 3.56244 9.36587 4.89706 9.25762L2.1675 18.8125H0V19.75C0 22.3785 2.9455 24.4375 6.625 24.4375ZM27.8818 18.8125H22.8681L25.3748 10.0396L27.8818 18.8125ZM6.62469 10.0382L9.13181 18.8125H4.11806L6.62469 10.0382Z" fill="#2063CC"/>
</g>
<defs>
<clipPath id="clip0_7910_1332">
<rect width="32" height="32" fill="white"/>
</clipPath>
</defs>
</svg>
