<svg width="32" height="32" viewBox="0 0 32 32" fill="none" xmlns="http://www.w3.org/2000/svg">
<path d="M24.5709 28.5716H7.42801C4.57087 28.5716 2.28516 26.2859 2.28516 23.4287V13.143C2.28516 10.2859 4.57087 8.00014 7.42801 8.00014H10.2852V6.85728C10.2852 4.91443 11.7709 3.42871 13.7137 3.42871H18.2852C20.228 3.42871 21.7137 4.91443 21.7137 6.85728V8.00014H24.5709C27.428 8.00014 29.7137 10.2859 29.7137 13.143V23.4287C29.7137 26.2859 27.428 28.5716 24.5709 28.5716ZM12.5709 8.00014H19.428V6.85728C19.428 6.17157 18.9709 5.71443 18.2852 5.71443H13.7137C13.028 5.71443 12.5709 6.17157 12.5709 6.85728V8.00014ZM15.9994 13.7144C15.3137 13.7144 14.8566 14.1716 14.8566 14.8573V17.143H12.5709C11.8852 17.143 11.428 17.6001 11.428 18.2859C11.428 18.9716 11.8852 19.4287 12.5709 19.4287H14.8566V21.7144C14.8566 22.4001 15.3137 22.8573 15.9994 22.8573C16.6852 22.8573 17.1423 22.4001 17.1423 21.7144V19.4287H19.428C20.1137 19.4287 20.5709 18.9716 20.5709 18.2859C20.5709 17.6001 20.1137 17.143 19.428 17.143H17.1423V14.8573C17.1423 14.1716 16.6852 13.7144 15.9994 13.7144Z" fill="#2063CC"/>
</svg>
