<svg width="32" height="32" viewBox="0 0 32 32" fill="none" xmlns="http://www.w3.org/2000/svg">
<path fill-rule="evenodd" clip-rule="evenodd" d="M7.31089 29.7505H2.94299C2.53057 29.7505 2.19314 29.4131 2.19314 29.0007V23.9204H0.74967C0.468475 23.9204 0.206026 23.7704 0.0748018 23.508C-0.0376762 23.2455 -0.0189299 22.9456 0.149787 22.7206L4.53643 16.8905C4.66765 16.7031 4.89261 16.5906 5.13631 16.5906C5.36127 16.5906 5.58623 16.7031 5.7362 16.8905L10.0479 22.6644C10.1791 22.7956 10.2541 22.9831 10.2541 23.1705C10.2541 23.583 9.91663 23.9204 9.50421 23.9204H8.06074V29.0007C8.06074 29.4131 7.72331 29.7505 7.31089 29.7505Z" fill="#2063CC"/>
<path fill-rule="evenodd" clip-rule="evenodd" d="M18.1822 29.7505H13.7955C13.3831 29.7505 13.0644 29.413 13.0644 29.0006V21.727H11.621C11.3398 21.727 11.0773 21.5583 10.9461 21.3146C10.8149 21.0522 10.8524 20.7522 11.0211 20.5273L15.389 14.6972C15.5389 14.5097 15.7639 14.3972 15.9889 14.3972C16.2326 14.3972 16.4575 14.5097 16.5887 14.6972L20.9191 20.471C21.0504 20.6023 21.1254 20.771 21.1254 20.9772C21.1254 21.3896 20.7879 21.727 20.3755 21.727H18.932V29.0006C18.932 29.413 18.5946 29.7505 18.1822 29.7505Z" fill="#2063CC"/>
<path fill-rule="evenodd" clip-rule="evenodd" d="M29.0566 29.7507H24.6699C24.2575 29.7507 23.9201 29.4132 23.9201 29.0008V19.5339H22.4766C22.1954 19.5339 21.933 19.3652 21.8205 19.1215C21.6893 18.8591 21.708 18.5591 21.8767 18.3342L26.2634 12.504C26.3946 12.3166 26.6196 12.2041 26.8633 12.2041C27.0882 12.2041 27.3132 12.3166 27.4631 12.504L31.7935 18.2779C31.906 18.4091 31.9998 18.5779 31.9998 18.7841C31.9998 19.1965 31.6623 19.5339 31.2499 19.5339C31.2312 19.5339 31.2312 19.5339 31.2312 19.5339H29.8064V29.0008C29.8064 29.4132 29.469 29.7507 29.0566 29.7507Z" fill="#2063CC"/>
<path fill-rule="evenodd" clip-rule="evenodd" d="M2.84928 16.0471C2.68057 16.0471 2.53059 15.9909 2.39937 15.8971C2.17441 15.7284 2.04319 15.4285 2.09943 15.1473L2.51185 12.9915L0.91841 11.4917C0.7122 11.2855 0.618468 10.9856 0.7122 10.7044C0.805932 10.442 1.04963 10.2357 1.33083 10.1983L3.52415 9.91706L4.44272 7.92995C4.57395 7.6675 4.83639 7.49878 5.13634 7.49878C5.41753 7.49878 5.67998 7.6675 5.8112 7.92995L6.74852 9.91706L8.9231 10.1983C9.20429 10.2357 9.44799 10.442 9.54173 10.7044C9.63546 10.9856 9.54173 11.2855 9.33552 11.4917L7.74208 12.9915L8.1545 15.1473C8.21073 15.4285 8.07951 15.7284 7.85455 15.8971C7.61085 16.0659 7.31091 16.0846 7.04846 15.9534L5.13634 14.8848L3.20546 15.9534C3.09298 16.0096 2.96176 16.0471 2.84928 16.0471Z" fill="#2063CC"/>
<path fill-rule="evenodd" clip-rule="evenodd" d="M13.7047 13.5913C13.5547 13.5913 13.4047 13.5351 13.2735 13.4413C13.0298 13.2726 12.9173 12.9727 12.9736 12.6915L13.386 10.5356L11.7926 9.03594C11.5676 8.82973 11.4926 8.52979 11.5863 8.24859C11.6801 7.98614 11.9238 7.77993 12.205 7.74244L14.3795 7.47999L15.3169 5.47413C15.4481 5.21169 15.7105 5.04297 15.9917 5.04297C16.2917 5.04297 16.5541 5.21169 16.6666 5.47413L17.6039 7.47999L19.7785 7.74244C20.0784 7.77993 20.3221 7.98614 20.4159 8.24859C20.4909 8.52979 20.4159 8.82973 20.2097 9.03594L18.5975 10.5356L19.0099 12.6915C19.0661 12.9727 18.9537 13.2726 18.7287 13.4413C18.485 13.61 18.1663 13.6288 17.9226 13.4976L15.9917 12.429L14.0796 13.4976C13.9671 13.5538 13.8359 13.5913 13.7047 13.5913Z" fill="#2063CC"/>
<path fill-rule="evenodd" clip-rule="evenodd" d="M29.1503 10.7793C29.0191 10.7793 28.9066 10.7418 28.7941 10.6856L26.8633 9.61701L24.9324 10.6856C24.6887 10.8168 24.37 10.798 24.1263 10.6293C23.9013 10.4606 23.7889 10.1607 23.8451 9.87946L24.2575 7.72363L22.6453 6.22393C22.4391 6.01772 22.3641 5.71778 22.4579 5.43658C22.5329 5.17413 22.7766 4.96792 23.0765 4.93043L25.2511 4.64923L26.1884 2.66212C26.3009 2.39967 26.5633 2.23096 26.8633 2.23096C27.1445 2.23096 27.4069 2.39967 27.5381 2.66212L28.4754 4.64923L30.65 4.93043C30.95 4.96792 31.1749 5.17413 31.2686 5.43658C31.3624 5.71778 31.2874 6.01772 31.0812 6.22393L29.469 7.72363L29.8814 9.87946C29.9377 10.1607 29.8252 10.4606 29.5815 10.6293C29.4503 10.723 29.3003 10.7793 29.1503 10.7793Z" fill="#2063CC"/>
</svg>
