<svg width="32" height="32" viewBox="0 0 32 32" fill="none" xmlns="http://www.w3.org/2000/svg">
<path d="M30 15.5C30 16.328 29.328 17 28.5 17H3.5C2.672 17 2 16.328 2 15.5C2 14.672 2.672 14 3.5 14H4.173C4.831 10.096 7.376 6.838 10.839 5.182L11.145 8.322C11.185 8.734 11.544 9.044 11.964 8.996C12.376 8.956 12.678 8.59 12.638 8.178L12.117 2.824C12.073 2.377 12.424 2 12.863 2H19.136C19.575 2 19.926 2.377 19.883 2.823L19.362 8.177C19.322 8.589 19.624 8.955 20.036 8.995C20.061 8.999 20.085 9 20.109 9C20.49 9 20.817 8.71 20.855 8.322L21.161 5.182C24.624 6.837 27.169 10.095 27.827 14H28.5C29.328 14 30 14.672 30 15.5Z" fill="#2063CC"/>
<path d="M29.5 21H28C28 19.897 27.103 19 26 19H6C4.897 19 4 19.897 4 21H2.5C2.224 21 2 21.224 2 21.5V23.5C2 23.776 2.224 24 2.5 24H4V26C4 26.266 4.105 26.52 4.293 26.707L6.293 28.707C6.48 28.895 6.735 29 7 29H13C13.334 29 13.646 28.833 13.832 28.555C14.574 27.444 15.55 26.319 16 26.039C16.45 26.318 17.426 27.443 18.168 28.555C18.354 28.833 18.666 29 19 29H25C25.265 29 25.52 28.895 25.707 28.707L27.707 26.707C27.895 26.52 28 26.266 28 26V24H29.5C29.776 24 30 23.776 30 23.5V21.5C30 21.224 29.776 21 29.5 21ZM26 25.586L24.586 27H19.528C18.504 25.541 17.151 24 16 24C14.849 24 13.496 25.541 12.472 27H7.414L6 25.586L5.999 21H26V25.586Z" fill="#2063CC"/>
</svg>
