<svg width="32" height="32" viewBox="0 0 32 32" fill="none" xmlns="http://www.w3.org/2000/svg">
<g clip-path="url(#clip0_7910_1309)">
<path d="M16.5 28H0.5C0.223846 28 0 28.2238 0 28.5V30C0 30.245 0.174988 30.45 0.415009 30.49L8.41501 31.99C8.44 32 8.47 32 8.5 32C8.53 32 8.56 32 8.58499 31.99L16.585 30.49C16.825 30.45 17 30.245 17 30V28.5C17 28.2238 16.7762 28 16.5 28Z" fill="#2063CC"/>
<path d="M7.42969 23.5H9.5697L10.3097 18.71L10.4447 17.825C9.92468 17.645 9.3797 17.54 8.82968 17.51C8.7197 17.5 8.60968 17.5 8.49969 17.5C8.38971 17.5 8.27969 17.5 8.17468 17.51C7.62469 17.54 7.07471 17.645 6.55469 17.825L6.6897 18.71L7.42969 23.5Z" fill="#2063CC"/>
<path d="M2.83844 23.8401L3.47345 23.0702L1.99344 21.8502L1.15845 21.1602L0.523438 21.9301L1.46344 22.7051L2.83844 23.8401Z" fill="#2063CC"/>
<path d="M15.5334 22.7051L16.3185 22.0602L16.3885 22.0002L16.4734 21.9301L15.8384 21.1602L15.0034 21.8502L13.5234 23.0702L14.1584 23.8401L15.5334 22.7051Z" fill="#2063CC"/>
<path d="M5 26C5 25.7236 5.22388 25.5 5.5 25.5C5.77612 25.5 6 25.7236 6 26V27H11V26C11 25.7236 11.2239 25.5 11.5 25.5C11.7761 25.5 12 25.7236 12 26V27H16.5V26.5C16.5 25.495 16.315 24.53 15.97 23.645L14.795 24.61C14.615 24.76 14.395 24.84 14.16 24.84C14.13 24.84 14.095 24.84 14.065 24.835C13.8 24.81 13.56 24.68 13.39 24.475L12.755 23.705C12.585 23.5 12.505 23.24 12.53 22.97C12.555 22.705 12.685 22.465 12.89 22.295L14.375 21.075C13.525 20.155 12.47 19.44 11.275 19L10.495 24.075C10.455 24.32 10.245 24.5 10 24.5H7C6.755 24.5 6.54501 24.32 6.505 24.075L5.72501 19C4.53 19.44 3.47501 20.155 2.625 21.075L4.10999 22.295C4.315 22.465 4.44501 22.705 4.47 22.97C4.495 23.24 4.41501 23.5 4.245 23.705L3.60999 24.475C3.44 24.68 3.20001 24.81 2.935 24.835C2.905 24.84 2.87 24.84 2.84 24.84C2.60501 24.84 2.38501 24.76 2.20499 24.61L1.03 23.645C0.684998 24.53 0.5 25.495 0.5 26.5V27H5V26Z" fill="#2063CC"/>
<path d="M20 9.5C21.9299 9.5 23.5 7.92969 23.5 6V1.38086C22.8223 2.67188 21.4607 3.5 20 3.5C18.5393 3.5 17.1777 2.67188 16.5 1.38086V6C16.5 7.92969 18.0701 9.5 20 9.5Z" fill="#2063CC"/>
<path d="M17.4684 22.03C17.4435 22.295 17.3134 22.535 17.1084 22.705L16.7734 22.98C17.0534 23.62 17.2534 24.295 17.3684 25H19.4984V22H17.4684C17.4734 22.01 17.4684 22.02 17.4684 22.03Z" fill="#2063CC"/>
<path d="M20.5 22H32V25H20.5V22Z" fill="#2063CC"/>
<path d="M17 15C17 14.725 17.225 14.5 17.5 14.5H19.5V13H8V16H17V15Z" fill="#2063CC"/>
<path d="M20.5 14.5H22.5C22.775 14.5 23 14.725 23 15V16H32V13H20.5V14.5Z" fill="#2063CC"/>
<path d="M17.0009 18V17H11.0859C11.1209 17.01 11.1559 17.025 11.1909 17.04C11.4059 17.125 11.5309 17.35 11.4959 17.575L11.4309 17.99C12.8709 18.485 14.141 19.34 15.141 20.445L15.2059 20.39C15.4109 20.22 15.671 20.14 15.9359 20.165C16.201 20.19 16.4409 20.32 16.6109 20.525L17.006 21H19.5009V18.5H17.5009C17.226 18.5 17.0009 18.275 17.0009 18Z" fill="#2063CC"/>
<path d="M18 15.5H22V17.5H18V15.5Z" fill="#2063CC"/>
<path d="M23 18C23 18.275 22.775 18.5 22.5 18.5H20.5V21H32V17H23V18Z" fill="#2063CC"/>
<path d="M17.4994 26.5V27.385C17.8044 27.66 17.9994 28.06 17.9994 28.5V30C17.9994 30.35 17.8844 30.665 17.6844 30.92L17.8244 30.97C17.9844 31.025 18.1644 31 18.2994 30.9L19.4994 30V26H17.4844C17.4944 26.165 17.4994 26.33 17.4994 26.5Z" fill="#2063CC"/>
<path d="M20.5 30L21.7 30.9C21.79 30.965 21.895 31 22 31C22.06 31 22.115 30.99 22.175 30.97L31.675 27.47C31.87 27.395 32 27.21 32 27V26H20.5V30Z" fill="#2063CC"/>
<path d="M12.5 0H12C11.17 0 10.5 0.669983 10.5 1.5V5.58499C10.5 6.38 10.29 7.17499 9.89499 7.875C9.505 8.565 8.94 9.14999 8.255 9.565C8.10001 9.655 8 9.82001 8 10V12H12.5V0Z" fill="#2063CC"/>
<path d="M19.5 10.47C17.255 10.225 15.5 8.315 15.5 6V1C15.5 0.449982 15.05 0 14.5 0H13.5V12H19.5V10.47Z" fill="#2063CC"/>
<path d="M20.5 10.475V12H26.5V0H25.5C24.95 0 24.5 0.449982 24.5 1V5.84C24.5 8.16998 22.79 10.215 20.5 10.475Z" fill="#2063CC"/>
<path d="M31.745 9.565C30.36 8.72501 29.5 7.20499 29.5 5.58499V1.5C29.5 0.669983 28.83 0 28 0H27.5V12H32V10C32 9.82001 31.9 9.655 31.745 9.565Z" fill="#2063CC"/>
</g>
<defs>
<clipPath id="clip0_7910_1309">
<rect width="32" height="32" fill="white"/>
</clipPath>
</defs>
</svg>
