<svg width="32" height="32" viewBox="0 0 32 32" fill="none" xmlns="http://www.w3.org/2000/svg">
<path d="M13.59 27.02C13.53 27.05 13.47 27.08 13.4 27.11C13.27 27.17 13.14 27.19 13 27.19C12.86 27.19 12.73 27.16 12.6 27.11C7.68 24.96 4.5 20.1 4.5 14.73V9.25C4.5 8.86 4.73 8.5 5.09 8.34L12.59 4.93C12.85 4.81 13.15 4.81 13.42 4.93L20.92 8.34C21.28 8.5 21.51 8.86 21.51 9.25V11.05C21.84 11.02 22.17 11 22.51 11C23.37 11 24.21 11.12 25.01 11.31V7C25.01 6.61 24.78 6.25 24.42 6.09L13.41 1.09C13.15 0.97 12.85 0.97 12.58 1.09L1.59 6.09C1.23 6.25 1 6.61 1 7V14.73C1 21.56 5.06 27.71 11.35 30.38L12.61 30.92C12.74 30.97 12.87 31 13 31C13.13 31 13.27 30.97 13.39 30.92L14.65 30.38C15.11 30.18 15.56 29.96 16 29.73C15.05 28.97 14.23 28.06 13.59 27.02Z" fill="#2063CC"/>
<path d="M19.5 11.44V9.89995L13 6.94995L6.5 9.89995V14.73C6.5 18.99 8.85 22.87 12.56 24.86C12.2 23.8 12 22.67 12 21.5C12 16.75 15.17 12.74 19.5 11.44Z" fill="#2063CC"/>
<path d="M22.5 13C17.81 13 14 16.81 14 21.5C14 26.19 17.81 30 22.5 30C27.19 30 31 26.19 31 21.5C31 16.81 27.19 13 22.5 13ZM26.53 20.13L22.42 24.28C22.23 24.47 21.98 24.58 21.71 24.58C21.45 24.58 21.19 24.47 21 24.29L18.47 21.76C18.08 21.37 18.08 20.74 18.47 20.34C18.86 19.95 19.49 19.95 19.89 20.34L21.71 22.16L25.11 18.73C25.5 18.34 26.13 18.33 26.52 18.73C26.91 19.12 26.92 19.75 26.52 20.14L26.53 20.13Z" fill="#2063CC"/>
</svg>
