<svg width="32" height="32" viewBox="0 0 32 32" fill="none" xmlns="http://www.w3.org/2000/svg">
<g clip-path="url(#clip0_7910_1284)">
<path d="M30.0423 19.9772V17.9575H20.7317C20.7317 20.5709 18.6131 22.6895 15.9997 22.6895C13.3862 22.6895 11.2677 20.571 11.2677 17.9575H1.95703V19.9772L6.00003 20.4053C6.25222 21.4391 6.66053 22.4117 7.19859 23.2967L4.64184 26.459L7.49816 29.3153L10.6605 26.7586C11.5455 27.2966 12.5181 27.705 13.5518 27.9571L13.98 32.0001H18.0193L18.4475 27.9571C19.4812 27.705 20.4538 27.2966 21.3388 26.7586L24.5012 29.3153L27.3575 26.459L24.8007 23.2967C25.3388 22.4117 25.7471 21.4391 25.9993 20.4053L30.0423 19.9772Z" fill="#2063CC"/>
<path d="M15.9943 0C13.9943 0 12.3672 1.62713 12.3672 3.62706C12.3672 5.627 13.9943 7.25406 15.9943 7.25406C17.9942 7.25406 19.6213 5.627 19.6213 3.62706C19.6213 1.62713 17.9942 0 15.9943 0Z" fill="#2063CC"/>
<path d="M19.8621 8.25684H12.1387C10.3606 8.2569 8.91406 9.7034 8.91406 11.4815V16.0823H23.0867V11.4815C23.0867 9.7034 21.6401 8.25684 19.8621 8.25684Z" fill="#2063CC"/>
<path d="M8.30778 1.67554C6.51616 1.67554 5.05859 3.13316 5.05859 4.92472C5.05859 6.70191 6.49303 8.1496 8.26484 8.17279C8.99859 7.31454 10.011 6.70197 11.1613 6.47729C11.4134 6.01572 11.557 5.48672 11.557 4.92472C11.557 3.1331 10.0994 1.67554 8.30778 1.67554Z" fill="#2063CC"/>
<path d="M4.84572 9.07227C3.25291 9.07227 1.95703 10.3681 1.95703 11.961V16.0825H7.03834V11.4816C7.03834 10.6106 7.25822 9.7902 7.64478 9.07227H4.84572Z" fill="#2063CC"/>
<path d="M23.6945 1.67554C21.9029 1.67554 20.4453 3.13316 20.4453 4.92472C20.4453 5.48666 20.5888 6.01572 20.8409 6.47729C21.9912 6.70197 23.0037 7.31454 23.7374 8.17279C25.5092 8.14966 26.9437 6.70191 26.9437 4.92472C26.9437 3.1331 25.4861 1.67554 23.6945 1.67554Z" fill="#2063CC"/>
<path d="M27.1545 9.07227H24.3555C24.742 9.7902 24.9619 10.6106 24.9619 11.4816V16.0825H30.0432V11.9609C30.0432 10.3681 28.7473 9.07227 27.1545 9.07227Z" fill="#2063CC"/>
</g>
<defs>
<clipPath id="clip0_7910_1284">
<rect width="32" height="32" fill="white"/>
</clipPath>
</defs>
</svg>
