<svg width="32" height="32" viewBox="0 0 32 32" fill="none" xmlns="http://www.w3.org/2000/svg">
<path d="M14.2385 20.574C13.2671 21.5454 12.6208 22.7649 12.3681 24.0997L12.1383 25.3192L10.375 24.4375V25.9939C10.375 29.2715 12.8982 32 16 32C19.6685 32 21.8594 29.9737 21.8594 26.6842C21.8594 25.3494 21.1498 23.9623 19.75 22.5625L17.4667 24.8449L16.8872 23.674C16.2984 22.4837 16 21.2039 16 19.8681V18.8125L14.2385 20.574Z" fill="#2063CC"/>
<path d="M28.7055 16.4028C29.6063 14.5104 30.0632 12.4825 30.0632 10.375C30.0632 8.26742 29.6063 6.23954 28.7055 4.34717L27.0117 5.15286C27.7927 6.79161 28.1882 8.54848 28.1882 10.375C28.1882 12.2015 27.7927 13.9584 27.0118 15.5972L28.7055 16.4028Z" fill="#2063CC"/>
<path d="M3.29525 4.34717C2.39437 6.23954 1.9375 8.26742 1.9375 10.375C1.9375 12.4825 2.39437 14.5104 3.29525 16.4028L4.989 15.5971C4.208 13.9584 3.8125 12.2015 3.8125 10.375C3.8125 8.54848 4.208 6.79161 4.98894 5.15279L3.29525 4.34717Z" fill="#2063CC"/>
<path d="M16 11.3125C16.5178 11.3125 16.9375 10.8928 16.9375 10.375C16.9375 9.85723 16.5178 9.4375 16 9.4375C15.4822 9.4375 15.0625 9.85723 15.0625 10.375C15.0625 10.8928 15.4822 11.3125 16 11.3125Z" fill="#2063CC"/>
<path d="M26.3125 10.375C26.3125 4.68869 21.6863 0 16 0C10.3137 0 5.6875 4.68869 5.6875 10.375C5.6875 14.7628 8.447 18.5093 12.3176 19.9961C12.5173 19.7471 12.6845 19.4766 12.9128 19.2483L17.875 14.2861V19.8681C17.875 20.0821 17.8952 20.2921 17.9148 20.5023C22.6091 19.6163 26.3125 15.4741 26.3125 10.375ZM16 13.1875C14.4491 13.1875 13.1875 11.9259 13.1875 10.375C13.1875 8.82413 14.4491 7.5625 16 7.5625C17.5509 7.5625 18.8125 8.82413 18.8125 10.375C18.8125 11.9259 17.5509 13.1875 16 13.1875Z" fill="#2063CC"/>
</svg>
