<svg width="32" height="32" viewBox="0 0 32 32" fill="none" xmlns="http://www.w3.org/2000/svg">
<g clip-path="url(#clip0_7910_1203)">
<path d="M19.7265 8.03175C19.6337 8.36622 19.5155 8.79742 19.6768 9.33523L19.6722 9.33762C19.5041 9.42166 19.3743 9.57279 19.3158 9.7523C19.2565 9.93451 19.2721 10.1282 19.3587 10.2956L19.855 11.2658C19.532 11.46 19.3929 11.8631 19.5247 12.2449L20.8554 16.101C20.9618 16.4072 21.1981 16.6532 21.5036 16.7761C21.6478 16.8341 21.8003 16.8628 21.9526 16.8628C22.1425 16.8628 22.3323 16.8181 22.5062 16.7294L24.6613 15.6274C24.9597 15.4752 25.1817 15.2039 25.2702 14.8829C25.3579 14.5654 25.3075 14.2229 25.1321 13.9434L22.976 10.5064C22.754 10.1595 22.3311 10.0264 21.9762 10.1812L21.4788 9.20885C21.3923 9.04179 21.2462 8.91757 21.0675 8.85906C20.9136 8.80873 20.7515 8.81262 20.6038 8.8672C20.5893 8.68724 20.6357 8.51864 20.6962 8.30076C20.7577 8.07884 20.8275 7.82732 20.8275 7.5326C20.8275 5.19837 18.9285 3.29934 16.5942 3.29934H14.294C14.2591 2.91636 13.9366 2.61522 13.5446 2.61522H12.2007C11.946 2.14327 11.5199 1.77664 11.0054 1.60086V1.07143C11.0054 0.481419 10.524 0 9.93576 0H3.14883C3.01127 0 2.9027 0.115831 2.91355 0.253381L2.94431 0.631644C2.96603 0.904931 3.15426 1.12392 3.42211 1.18727L8.28963 2.33165L3.08163 4.62706C2.82735 4.73914 2.71205 5.03613 2.8241 5.29041C2.90712 5.47873 3.09145 5.59078 3.2848 5.59078C3.3526 5.59078 3.42151 5.577 3.48747 5.54792L8.17638 3.48131C8.16963 3.58084 8.16944 3.68215 8.17688 3.78494C8.20892 4.22719 8.37836 4.63362 8.64168 4.96221V6.73841C6.50128 7.27644 4.91161 9.21655 4.91161 11.5215V27.5803H15.9427V11.5215C15.9427 9.136 14.2401 7.14102 11.9864 6.68696V4.98799H13.5446C13.9359 4.98799 14.2582 4.68783 14.2939 4.30568H16.5942C18.3736 4.30568 19.8212 5.75327 19.8212 7.53261C19.8212 7.69033 19.7773 7.84856 19.7265 8.03175ZM13.9284 11.5215C13.9284 11.7994 13.7031 12.0247 13.4252 12.0247C13.1473 12.0247 12.922 11.7994 12.922 11.5215C12.922 10.4667 12.0647 9.60853 11.0108 9.60853C10.7329 9.60853 10.5077 9.38327 10.5077 9.10536C10.5077 8.82746 10.7329 8.6022 11.0108 8.6022C12.6196 8.6022 13.9284 9.91178 13.9284 11.5215Z" fill="#2063CC"/>
<path d="M4.91016 29.4988C4.91016 30.878 6.03136 32 7.40954 32H13.44C14.8192 32 15.9412 30.878 15.9412 29.4988V28.5867H4.91016V29.4988Z" fill="#2063CC"/>
<path d="M27.9796 22.6981L27.9732 22.6899C27.8265 22.5065 27.5921 22.4213 27.3621 22.4674L27.3433 22.4715C27.1131 22.5268 26.9359 22.7032 26.8798 22.9373C26.8345 23.1356 26.7761 23.3185 26.7054 23.4849C26.7943 22.0736 26.6089 20.8795 26.1454 19.8605C25.6214 18.7085 24.8254 17.9597 24.0437 17.3226C23.8391 17.1554 23.5505 17.1368 23.3245 17.2761C23.092 17.4181 22.9809 17.6886 23.0467 17.9523C23.3257 19.1111 22.4465 20.1713 21.4285 21.3987C20.2875 22.7745 18.9943 24.3338 18.9654 26.4834C18.9268 29.4328 20.9883 31.1857 21.8769 31.8029C22.1243 31.9741 22.4582 31.9435 22.6711 31.7306L22.679 31.7226C22.8879 31.5041 22.9103 31.169 22.734 30.9279C22.0792 30.0224 21.9265 29.1004 22.2627 27.8811C22.2841 27.9131 22.306 27.9446 22.3284 27.9755C22.4917 28.2058 22.7891 28.2956 23.0534 28.1953C23.317 28.0973 23.4812 27.8344 23.4531 27.552C23.3485 26.5247 23.5359 25.6479 24.0535 24.8C24.2959 25.6462 24.7569 26.2806 25.1761 26.8574C26.0202 28.0192 26.6301 28.8586 25.3611 31.0621C25.2069 31.3223 25.266 31.66 25.4979 31.8527C25.614 31.9509 25.7561 32 25.898 32C26.0376 32 26.1769 31.9525 26.2909 31.8575C29.6859 29.0659 30.3015 25.7274 27.9796 22.6981Z" fill="#2063CC"/>
</g>
<defs>
<clipPath id="clip0_7910_1203">
<rect width="32" height="32" fill="white"/>
</clipPath>
</defs>
</svg>
