<svg width="32" height="32" viewBox="0 0 32 32" fill="none" xmlns="http://www.w3.org/2000/svg">
<g clip-path="url(#clip0_7910_1235)">
<path d="M1.42453 5.98628C1.70641 7.10066 2.2846 8.11941 3.09716 8.93191L3.8411 9.66628L9.67635 3.83141L8.93247 3.09697C8.11928 2.28447 7.1011 1.70635 5.98666 1.42447L0.389472 0.00947174C0.282597 -0.0174033 0.169472 0.0138467 0.0913467 0.0913467C0.0138467 0.169472 -0.0174033 0.282597 0.00947174 0.389472L1.42453 5.98628Z" fill="#2063CC"/>
<path d="M8.01516 13.7864L13.8499 7.95205L11.0109 5.14893L5.17578 10.9837L8.01516 13.7864Z" fill="#2063CC"/>
<path d="M18.2109 24.0469L24.0447 18.2131L27.5416 21.7099L21.7078 27.5437L18.2109 24.0469Z" fill="#2063CC"/>
<path d="M28.8743 23.0366L23.0391 28.8714L24.9594 30.7919C25.7389 31.5706 26.7752 32 27.8771 32C28.9791 32 30.0154 31.5706 30.7948 30.7919C32.4031 29.1831 32.4031 26.5656 30.7948 24.9569L28.8743 23.0366Z" fill="#2063CC"/>
<path d="M14.4346 17.1805C14.8008 16.8144 15.3944 16.8144 15.7605 17.1805L18.9899 20.4097L20.4111 18.9886L18.5677 17.1454C18.2015 16.7794 18.2015 16.1858 18.5677 15.8196C18.9338 15.4536 19.5274 15.4534 19.8936 15.8196L21.7369 17.6628L23.1831 16.2167L19.9538 12.9875C19.5876 12.6214 19.5876 12.0278 19.9538 11.6617C20.3199 11.2956 20.9135 11.2955 21.2796 11.6617L24.509 14.8909L25.9552 13.4448L24.1119 11.6016C23.7457 11.2356 23.7457 10.642 24.1119 10.2758C24.478 9.90975 25.0716 9.90963 25.4377 10.2758L27.2811 12.119L28.7273 10.6729L25.4979 7.44362C25.1318 7.07756 25.1318 6.48394 25.4979 6.11781C25.8641 5.75169 26.4578 5.75169 26.8238 6.11781L30.0532 9.34706L31.3794 8.01875C31.7796 7.61863 31.9999 7.08656 31.9999 6.52069C31.9999 5.95481 31.7795 5.42287 31.3794 5.02269L26.9769 0.620562C26.5767 0.220375 26.0447 0 25.4788 0C24.9129 0 24.3809 0.220313 23.9807 0.6205L0.6205 23.9813C0.220375 24.3813 0 24.9134 0 25.4792C0 26.0451 0.220375 26.577 0.6205 26.9772L5.02313 31.3794C5.42325 31.7796 5.95525 32 6.52119 32C7.08712 32 7.61912 31.7796 8.01925 31.3795L9.34762 30.0513L7.50431 28.2081C7.13819 27.8421 7.13819 27.2484 7.50431 26.8823C7.87044 26.5163 8.46406 26.5163 8.83019 26.8823L10.6735 28.7255L12.1197 27.2794L8.89031 24.0502C8.52419 23.6842 8.52419 23.0906 8.89031 22.7244C9.25644 22.3584 9.85006 22.3584 10.2162 22.7244L13.4456 25.9536L14.8918 24.5074L13.0484 22.6642C12.6823 22.2982 12.6823 21.7046 13.0484 21.3384C13.4146 20.9724 14.0083 20.9722 14.3744 21.3384L16.2178 23.1816L17.6639 21.7355L14.4346 18.5063C14.0684 18.1403 14.0684 17.5466 14.4346 17.1805Z" fill="#2063CC"/>
</g>
<defs>
<clipPath id="clip0_7910_1235">
<rect width="32" height="32" fill="white"/>
</clipPath>
</defs>
</svg>
