<svg width="32" height="32" viewBox="0 0 32 32" fill="none" xmlns="http://www.w3.org/2000/svg">
<path d="M12.1796 6.40666L12.4488 6.0718C13.9865 4.14951 15.2773 2.4718 15.9528 1.5838C16.0485 1.45868 16.2274 1.43465 16.3528 1.53009C19.1413 3.70151 21.6808 7.67637 21.1488 11.9301C20.9933 13.2056 20.6619 14.4534 20.1642 15.6381C19.1641 16.0365 18.2223 16.5679 17.3642 17.2181C16.0865 18.1653 15.029 19.3778 14.2642 20.7724C14.2559 20.7881 14.2484 20.8043 14.2419 20.8209C14.0731 21.156 13.9291 21.5031 13.8111 21.8592C13.6968 21.6878 13.5768 21.5221 13.4511 21.3598C13.0631 18.6741 12.6436 12.1369 16.4699 6.6118C16.6405 6.35253 16.5729 6.00452 16.3178 5.82788C16.0626 5.65125 15.7131 5.71057 15.5305 5.96151C12.0705 10.9569 11.8825 16.6964 12.1539 20.0301C11.3949 19.4184 10.5557 18.9135 9.65963 18.5295C6.75506 13.1398 10.0128 9.09351 12.1796 6.40666ZM2.82991 24.9187C2.13463 22.8986 1.33021 20.9178 0.420198 18.9849C0.383479 18.9043 0.386286 18.8111 0.427796 18.7328C0.469307 18.6545 0.544818 18.5999 0.632198 18.5849C4.87906 17.9238 11.1836 19.0267 13.2036 23.0707C13.6631 24.0532 14.0047 25.0867 14.2213 26.1495C12.5168 23.7581 9.57563 21.3038 3.55106 20.0129C3.24241 19.9467 2.93847 20.1432 2.8722 20.4518C2.80592 20.7604 3.00241 21.0644 3.31106 21.1307C11.3402 22.8512 13.4396 26.7912 14.3345 28.5209L14.3385 28.5289V28.5329C14.3439 28.5464 14.35 28.5596 14.3568 28.5724C14.5012 28.8475 14.63 29.1307 14.7425 29.4204C14.7831 29.8072 14.8105 30.1347 14.8288 30.3769C6.33963 32.4381 3.61334 27.2695 2.82991 24.9187ZM29.1813 23.1827C27.6819 27.1827 21.9813 31.7329 15.9756 30.3552C15.9351 29.7712 15.8362 28.6575 15.6231 27.3655C16.0893 25.5895 17.5945 20.6227 29.2836 17.6975C29.4859 17.652 29.6476 17.5005 29.7063 17.3017C29.7649 17.1028 29.7113 16.8878 29.5661 16.7399C29.4209 16.5919 29.207 16.5341 29.0071 16.5889C21.6596 18.4255 17.1168 21.2804 15.1911 25.2787C15.0371 24.6604 14.8463 24.0519 14.6196 23.4564C14.7063 22.7039 14.9314 21.9739 15.2836 21.3032C15.2916 21.2884 15.2987 21.2732 15.3048 21.2575C15.9942 20.0273 16.9371 18.9576 18.0711 18.1192C18.9086 17.4858 19.8321 16.9751 20.8139 16.6027H20.8185C24.6556 15.0964 29.4099 15.1741 31.4733 15.2975C31.5601 15.3022 31.6399 15.3467 31.6895 15.4181C31.739 15.4894 31.7529 15.5797 31.7271 15.6627C31.2785 17.1301 30.3631 20.0329 29.1813 23.1827Z" fill="#2063CC"/>
</svg>
