<svg width="32" height="32" viewBox="0 0 32 32" fill="none" xmlns="http://www.w3.org/2000/svg">
<path d="M16.0002 11.1863L21.4458 0.45752C20.6433 0.957457 18.6453 2.00577 16.0001 2.00577C13.3541 2.00577 11.3555 0.956645 10.5547 0.45777L16.0002 11.1863Z" fill="#2063CC"/>
<path d="M8.21997 0H5.48372V9.70481C5.48372 11.5684 4.63966 13.175 1.86328 13.9765V21.8213H11.7913V27.4463H1.86328V32H15.063V13.4819L8.21997 0ZM11.7913 18.3878H4.63966V16.5128H11.7913V18.3878Z" fill="#2063CC"/>
<path d="M1.86328 23.6963H9.91628V25.5713H1.86328V23.6963Z" fill="#2063CC"/>
<path d="M22.0859 23.6963H30.1389V25.5713H22.0859V23.6963Z" fill="#2063CC"/>
<path d="M30.1373 21.8213V13.9765C30.1373 13.9765 28.9855 13.5819 28.7556 13.4583C28.8725 14.4411 28.5344 15.1335 28.0543 15.7841C27.3712 16.7095 24.3125 19.3697 24.3125 19.3697C24.3125 19.3697 21.2536 16.7095 20.5707 15.7841C20.0907 15.1338 19.8573 14.4606 19.8573 13.7262C19.8573 11.9979 21.2634 10.5918 22.9918 10.5918C23.4472 10.5918 23.9 10.6938 24.3125 10.8852C24.725 10.6938 25.1779 10.5918 25.6334 10.5918C25.9887 10.5918 26.33 10.652 26.6487 10.7614C26.5626 10.4221 26.5168 10.0679 26.5168 9.70487V0H23.7806L16.9375 13.4819V32H30.1373V27.4463H20.2092V21.8213H30.1373Z" fill="#2063CC"/>
<path d="M26.8948 13.7262C26.8948 13.0318 26.3298 12.4668 25.6354 12.4668C25.3648 12.4668 25.0959 12.557 24.8785 12.7207L24.3145 13.1454L23.7506 12.7207C23.5331 12.557 23.2644 12.4669 22.9938 12.4669C22.2994 12.4669 21.7344 13.0319 21.7344 13.7263C21.7344 14.0589 21.8382 14.3413 22.0814 14.6708L22.0816 14.671C22.4421 15.1595 23.534 16.1774 24.3146 16.8781C25.0952 16.1774 26.1872 15.1594 26.5478 14.6709C26.791 14.3412 26.8948 14.0586 26.8948 13.7262Z" fill="#2063CC"/>
</svg>
