<svg width="32" height="32" viewBox="0 0 32 32" fill="none" xmlns="http://www.w3.org/2000/svg">
<path d="M18.4957 4.04332L27.8384 13.3863C28.0371 13.5848 28.0371 13.9064 27.8384 14.1049L25.3231 16.6204L15.2617 6.55886L17.7773 4.04332C17.9755 3.84493 18.2975 3.84493 18.4957 4.04332Z" fill="#2063CC"/>
<path d="M24.1719 16.9112L19.5729 18.0596L13.8203 12.3071L14.9688 7.70801L24.1719 16.9112Z" fill="#2063CC"/>
<path d="M13.1018 13.0237L4.11719 22.0083L9.86982 27.7611L18.8544 18.7763L13.1018 13.0237ZM12.3854 17.3382L6.63273 23.0858C6.53903 23.1832 6.40971 23.2383 6.27452 23.2383C6.13933 23.2383 6.00985 23.1832 5.91631 23.0858C5.71924 22.8877 5.71924 22.5675 5.91631 22.3693L11.6637 16.6216C11.8634 16.4234 12.1858 16.4234 12.3854 16.6216C12.5823 16.8199 12.5823 17.1401 12.3854 17.3382ZM13.8185 15.9001C13.7248 15.9974 13.5955 16.0526 13.4603 16.0526C13.3249 16.0526 13.1956 15.9974 13.1018 15.9001C12.9049 15.702 12.9049 15.3817 13.1018 15.1835L13.4629 14.8228C13.6609 14.6256 13.9811 14.6256 14.1792 14.8228C14.3773 15.0225 14.3773 15.3445 14.1792 15.5444L13.8185 15.9001Z" fill="#2063CC"/>
<path d="M3.40292 22.729L9.15247 28.4786L6.99617 30.6344C6.59939 31.0313 5.95599 31.0313 5.55907 30.6344L1.24691 26.3224C0.849989 25.9253 0.849989 25.2819 1.24691 24.885L3.40292 22.729Z" fill="#2063CC"/>
<path d="M10.586 14.1062L6.99294 17.699L6.18004 16.8858C5.98165 16.6861 5.98165 16.364 6.18004 16.1643L9.05643 13.2932C9.25452 13.096 9.57476 13.096 9.77285 13.2932L10.586 14.1062Z" fill="#2063CC"/>
<path d="M25.8207 6.56743C25.6151 6.56743 25.4298 6.44368 25.3512 6.25409C25.2726 6.06421 25.316 5.84573 25.4613 5.70013L30.0544 1.10732C30.2537 0.914655 30.5705 0.917441 30.7667 1.11334C30.9627 1.30952 30.9655 1.62624 30.7729 1.8258L26.1798 6.41875C26.0847 6.51406 25.9554 6.56743 25.8207 6.56743Z" fill="#2063CC"/>
<path d="M22.2622 4.73425C22.2177 4.73454 22.1734 4.72868 22.1306 4.71709C22.0002 4.68205 21.8892 4.59701 21.8221 4.48C21.7546 4.36343 21.7363 4.22457 21.7713 4.09437L22.5112 1.33499C22.5902 1.07209 22.864 0.920179 23.1292 0.991C23.3942 1.06182 23.555 1.33059 23.4923 1.59774L22.7525 4.35771C22.693 4.5797 22.492 4.73396 22.2622 4.73425Z" fill="#2063CC"/>
<path d="M27.4766 9.94409C27.2215 9.94394 27.0064 9.75479 26.9731 9.50186C26.94 9.24922 27.0992 9.0108 27.3455 8.94497L30.2966 8.15406C30.4737 8.10157 30.6653 8.14908 30.7974 8.27855C30.9294 8.40802 30.9807 8.59907 30.9313 8.77693C30.8817 8.95509 30.7395 9.09248 30.5598 9.13558L27.6089 9.92664C27.5656 9.93822 27.5213 9.94394 27.4766 9.94409Z" fill="#2063CC"/>
</svg>
