<svg width="18" height="18" viewBox="0 0 18 18" fill="none" xmlns="http://www.w3.org/2000/svg">
<g clip-path="url(#clip0_9809_34)">
<g clip-path="url(#clip1_9809_34)">
<path fill-rule="evenodd" clip-rule="evenodd" d="M15.4093 15.8033C15.3855 16.0504 15.2859 16.2851 15.1231 16.477C14.9605 16.6689 14.7421 16.8093 14.4962 16.8798C14.2504 16.9504 13.9883 16.948 13.7438 16.8731C13.4992 16.7983 13.2835 16.6541 13.1243 16.4594C11.7252 15.3833 9.54315 13.8323 9.54315 13.8323C9.54315 13.8323 7.96419 16.5253 7.6818 16.8011C7.58851 16.877 7.47992 16.9333 7.36293 16.9663C7.24594 16.9991 7.12315 17.0081 7.00237 16.9926C6.88159 16.977 6.76544 16.9373 6.66142 16.8759C6.55739 16.8145 6.46775 16.7328 6.39817 16.6359C6.38377 16.5935 6.36672 16.5519 6.34693 16.5115L7.23256 12.2218L13.5481 6.21581L4.93481 10.9741C4.93481 10.9741 1.04545 9.84819 0.467822 9.62824C0.318812 9.54944 0.195933 9.43139 0.113382 9.28775C0.0308327 9.14411 -0.0078995 8.98078 0.00150384 8.81666C0.0109072 8.65254 0.0680489 8.49435 0.166501 8.36043C0.264954 8.22651 0.400666 8.12235 0.557763 8.05999C1.37928 7.65488 15.8714 2.29632 16.3592 2.15838C16.8469 2.02044 18.1305 1.66129 17.9893 2.87044C17.8482 4.07959 15.5505 15.1384 15.4093 15.8033Z" fill="#FD6229"/>
</g>
</g>
<defs>
<clipPath id="clip0_9809_34">
<rect width="18" height="18" fill="white"/>
</clipPath>
<clipPath id="clip1_9809_34">
<rect width="18" height="18" fill="white"/>
</clipPath>
</defs>
</svg>
