<svg width="16" height="16" viewBox="0 0 16 16" fill="none" xmlns="http://www.w3.org/2000/svg">
<path fill-rule="evenodd" clip-rule="evenodd" d="M8 8.66669C9.59733 8.66669 11.05 9.12935 12.1187 9.78135C12.652 10.1067 13.108 10.4907 13.4373 10.908C13.7613 11.318 14 11.8087 14 12.3334C14 12.8967 13.726 13.3407 13.3313 13.6574C12.958 13.9574 12.4653 14.156 11.942 14.2947C10.89 14.5727 9.486 14.6667 8 14.6667C6.514 14.6667 5.11 14.5734 4.058 14.2947C3.53467 14.156 3.042 13.9574 2.66867 13.6574C2.27333 13.34 2 12.8967 2 12.3334C2 11.8087 2.23867 11.318 2.56267 10.9074C2.892 10.4907 3.34733 10.1074 3.88133 9.78069C4.95 9.13002 6.40333 8.66669 8 8.66669ZM8 10C6.65133 10 5.438 10.3934 4.576 10.9194C4.14467 11.182 3.81933 11.4674 3.60933 11.734C3.39333 12.0074 3.33333 12.214 3.33333 12.3334C3.33333 12.4147 3.358 12.5007 3.50333 12.6174C3.66933 12.7507 3.958 12.8887 4.39933 13.0054C5.278 13.2387 6.54067 13.3334 8 13.3334C9.46 13.3334 10.722 13.238 11.6 13.0054C12.042 12.8887 12.3307 12.7507 12.4967 12.6174C12.642 12.5007 12.6667 12.4147 12.6667 12.3334C12.6667 12.2134 12.6067 12.0074 12.3913 11.734C12.1807 11.4674 11.8553 11.182 11.424 10.9194C10.562 10.3927 9.34867 10 8 10ZM8 1.33335C8.88406 1.33335 9.7319 1.68454 10.357 2.30967C10.9821 2.93479 11.3333 3.78263 11.3333 4.66669C11.3333 5.55074 10.9821 6.39859 10.357 7.02371C9.7319 7.64883 8.88406 8.00002 8 8.00002C7.11595 8.00002 6.2681 7.64883 5.64298 7.02371C5.01786 6.39859 4.66667 5.55074 4.66667 4.66669C4.66667 3.78263 5.01786 2.93479 5.64298 2.30967C6.2681 1.68454 7.11595 1.33335 8 1.33335ZM8 2.66669C7.73736 2.66669 7.47728 2.71842 7.23463 2.81893C6.99198 2.91944 6.7715 3.06676 6.58579 3.25247C6.40007 3.43819 6.25275 3.65867 6.15224 3.90132C6.05173 4.14397 6 4.40404 6 4.66669C6 4.92933 6.05173 5.1894 6.15224 5.43206C6.25275 5.67471 6.40007 5.89518 6.58579 6.0809C6.7715 6.26662 6.99198 6.41394 7.23463 6.51445C7.47728 6.61496 7.73736 6.66669 8 6.66669C8.53043 6.66669 9.03914 6.45598 9.41421 6.0809C9.78929 5.70583 10 5.19712 10 4.66669C10 4.13626 9.78929 3.62755 9.41421 3.25247C9.03914 2.8774 8.53043 2.66669 8 2.66669Z" fill="#FD6229"/>
</svg>
