<svg width="18" height="18" viewBox="0 0 18 18" fill="none" xmlns="http://www.w3.org/2000/svg">
<g clip-path="url(#clip0_9809_191)">
<g clip-path="url(#clip1_9809_191)">
<path fill-rule="evenodd" clip-rule="evenodd" d="M9.00047 18C7.30353 17.9957 5.64284 17.5079 4.21229 16.5933L0.00012207 18L1.40423 13.7789C0.346398 12.0877 -0.120381 10.0922 0.0774689 8.10618C0.275318 6.12021 1.12658 4.25647 2.49719 2.80806C3.86781 1.35965 5.67999 0.408758 7.64895 0.104919C9.61793 -0.198919 11.6319 0.161516 13.3741 1.12959C15.1162 2.09766 16.4877 3.61838 17.2729 5.45265C18.0581 7.28692 18.2124 9.33069 17.7117 11.2624C17.2109 13.1942 16.0834 14.9043 14.5065 16.1239C12.9295 17.3436 10.9927 18.0036 9.00047 18ZM10.9566 10.3489C11.5552 10.5429 12.1642 10.7035 12.7806 10.8298C12.8455 10.8394 12.9077 10.8619 12.9636 10.8961C13.0195 10.9304 13.068 10.9755 13.1062 11.029C13.1442 11.0824 13.1712 11.143 13.1854 11.2071C13.1995 11.2712 13.2006 11.3375 13.1886 11.4021V11.7483C13.1946 11.8719 13.1717 11.9952 13.1217 12.1082C13.0717 12.2214 12.9959 12.3212 12.9006 12.3999C12.6048 12.7007 12.2547 12.9422 11.8686 13.1117C11.2991 13.1795 10.7217 13.1292 10.1725 12.9637C9.62335 12.7982 9.11408 12.5211 8.67643 12.1499C8.11218 11.7706 7.5858 11.3379 7.10445 10.8575C6.62538 10.3728 6.19146 9.84514 5.80831 9.28127C5.44064 8.84255 5.16686 8.33288 5.00378 7.78383C4.84071 7.23478 4.79192 6.65807 4.86037 6.08936C5.02973 5.7048 5.26989 5.35563 5.56836 5.06022C5.6444 4.96278 5.74338 4.8858 5.8565 4.83626C5.96964 4.78672 6.09339 4.76617 6.21643 4.77645H6.56434C6.6956 4.7583 6.82879 4.79301 6.93452 4.87303C7.04025 4.95303 7.10988 5.07184 7.12833 5.2033C7.30833 5.91504 7.44038 6.42959 7.62039 7.00667C7.69239 7.24712 7.60848 7.3048 7.41648 7.44908C7.29646 7.54165 7.20045 7.60899 7.10445 7.67992C7.04877 7.7042 6.99882 7.73991 6.95781 7.78478C6.91681 7.82966 6.88564 7.88265 6.86641 7.94035C6.84717 7.99805 6.84019 8.05921 6.84604 8.11976C6.8519 8.18031 6.87045 8.2389 6.90039 8.29184C7.20686 8.88275 7.59912 9.42488 8.06441 9.90045C8.53843 10.3675 9.08077 10.7595 9.67256 11.063C9.72554 11.0925 9.78392 11.1107 9.84426 11.1163C9.90458 11.122 9.96545 11.115 10.023 11.0959C10.0805 11.0768 10.1335 11.046 10.1785 11.0054C10.2236 10.9648 10.2595 10.9152 10.2845 10.8598C10.3565 10.7624 10.4165 10.6711 10.5125 10.546C10.5275 10.5028 10.551 10.4631 10.5817 10.4291C10.6123 10.3952 10.6495 10.3679 10.691 10.3487C10.7324 10.3295 10.7773 10.3189 10.823 10.3175C10.8686 10.3161 10.914 10.3239 10.9566 10.3405V10.3489Z" fill="#FD6229"/>
</g>
</g>
<defs>
<clipPath id="clip0_9809_191">
<rect width="18" height="18" fill="white"/>
</clipPath>
<clipPath id="clip1_9809_191">
<rect width="18" height="18" fill="white"/>
</clipPath>
</defs>
</svg>
